<svg width="25" height="25" viewBox="0 0 25 25" fill="none" xmlns="http://www.w3.org/2000/svg">
<mask id="mask0_5599_2295" style="mask-type:alpha" maskUnits="userSpaceOnUse" x="0" y="0" width="25" height="25">
<rect x="0.857422" y="0.5" width="24" height="24" fill="#D9D9D9"/>
</mask>
<g mask="url(#mask0_5599_2295)">
<path d="M12.8575 22.5246C12.5909 22.5246 12.3367 22.4746 12.095 22.3746C11.8534 22.2746 11.6325 22.1329 11.4325 21.9496L3.40752 13.9246C3.22419 13.7246 3.08252 13.5038 2.98252 13.2621C2.88252 13.0204 2.83252 12.7663 2.83252 12.4996C2.83252 12.2329 2.88252 11.9746 2.98252 11.7246C3.08252 11.4746 3.22419 11.2579 3.40752 11.0746L11.4325 3.04961C11.6325 2.84961 11.8534 2.70378 12.095 2.61211C12.3367 2.52044 12.5909 2.47461 12.8575 2.47461C13.1242 2.47461 13.3825 2.52044 13.6325 2.61211C13.8825 2.70378 14.0992 2.84961 14.2825 3.04961L22.3075 11.0746C22.5075 11.2579 22.6534 11.4746 22.745 11.7246C22.8367 11.9746 22.8825 12.2329 22.8825 12.4996C22.8825 12.7663 22.8367 13.0204 22.745 13.2621C22.6534 13.5038 22.5075 13.7246 22.3075 13.9246L14.2825 21.9496C14.0992 22.1329 13.8825 22.2746 13.6325 22.3746C13.3825 22.4746 13.1242 22.5246 12.8575 22.5246ZM12.8575 20.5246L20.8825 12.4996L12.8575 4.47461L4.83252 12.4996L12.8575 20.5246ZM11.8575 13.4996H13.8575V7.49961H11.8575V13.4996ZM12.8575 16.4996C13.1409 16.4996 13.3784 16.4038 13.57 16.2121C13.7617 16.0204 13.8575 15.7829 13.8575 15.4996C13.8575 15.2163 13.7617 14.9788 13.57 14.7871C13.3784 14.5954 13.1409 14.4996 12.8575 14.4996C12.5742 14.4996 12.3367 14.5954 12.145 14.7871C11.9534 14.9788 11.8575 15.2163 11.8575 15.4996C11.8575 15.7829 11.9534 16.0204 12.145 16.2121C12.3367 16.4038 12.5742 16.4996 12.8575 16.4996Z" fill="#1C1B1F"/>
</g>
</svg>
