<svg width="142" height="223" viewBox="0 0 142 223" fill="none" xmlns="http://www.w3.org/2000/svg">
<g filter="url(#filter0_d_6059_1297)">
<g clip-path="url(#clip0_6059_1297)">
<rect x="4" width="133.448" height="215" rx="5.93103" fill="#ECF0F3"/>
<path d="M49.5957 12.361C49.5957 10.2228 51.2473 8.44779 53.38 8.29398L63.6317 7.55457C68.3544 7.21395 73.0956 7.21395 77.8183 7.55457L88.0701 8.29398C90.2027 8.44779 91.8543 10.2228 91.8543 12.361V14.9384C91.8543 17.0317 90.2692 18.785 88.1864 18.9953L80.6311 19.7582C74.0438 20.4234 67.4062 20.4234 60.8189 19.7582L53.2636 18.9953C51.1809 18.785 49.5957 17.0317 49.5957 14.9384V12.361Z" fill="#DEDEDE"/>
<g filter="url(#filter1_dddddddd_6059_1297)">
<rect x="18.8281" y="40.4023" width="103.793" height="143.457" rx="4.82084" fill="#E3E6EC"/>
</g>
<path d="M61.4413 55.8555H58.7119V58.5848H61.4413V55.8555Z" fill="#022B41"/>
<path d="M66.9003 55.8555H64.1709V58.5848H66.9003V55.8555Z" fill="#022B41"/>
<path d="M77.8173 55.8555H75.0879V58.5848H77.8173V55.8555Z" fill="#022B41"/>
<path d="M66.9003 58.5898H64.1709V61.3192H66.9003V58.5898Z" fill="#022B41"/>
<path d="M61.4413 61.3164H58.7119V64.0458H61.4413V61.3164Z" fill="#022B41"/>
<path d="M69.6259 61.3164H66.8965V64.0458H69.6259V61.3164Z" fill="#022B41"/>
<path d="M72.3593 61.3164H69.6299V64.0458H72.3593V61.3164Z" fill="#022B41"/>
<path d="M75.0878 61.3164H72.3584V64.0458H75.0878V61.3164Z" fill="#022B41"/>
<path d="M69.6307 64.0508H66.9014V66.7802H69.6307V64.0508Z" fill="#022B41"/>
<path d="M75.0878 64.0508H72.3584V66.7802H75.0878V64.0508Z" fill="#022B41"/>
<path d="M77.8182 64.0508H75.0889V66.7802H77.8182V64.0508Z" fill="#022B41"/>
<path d="M80.5468 64.0508H77.8174V66.7802H80.5468V64.0508Z" fill="#022B41"/>
<path d="M64.1708 66.7734H61.4414V69.5028H64.1708V66.7734Z" fill="#022B41"/>
<path d="M66.9003 66.7734H64.1709V69.5028H66.9003V66.7734Z" fill="#022B41"/>
<path d="M72.3593 66.7734H69.6299V69.5028H72.3593V66.7734Z" fill="#022B41"/>
<path d="M77.8182 66.7734H75.0889V69.5028H77.8182V66.7734Z" fill="#022B41"/>
<path d="M83.2762 66.7734H80.5469V69.5028H83.2762V66.7734Z" fill="#022B41"/>
<path d="M61.4413 69.5039H58.7119V72.2333H61.4413V69.5039Z" fill="#022B41"/>
<path d="M64.1708 69.5039H61.4414V72.2333H64.1708V69.5039Z" fill="#022B41"/>
<path d="M66.9003 69.5039H64.1709V72.2333H66.9003V69.5039Z" fill="#022B41"/>
<path d="M75.0878 69.5039H72.3584V72.2333H75.0878V69.5039Z" fill="#022B41"/>
<path d="M77.8182 69.5039H75.0889V72.2333H77.8182V69.5039Z" fill="#022B41"/>
<path d="M61.4413 72.2344H58.7119V74.9637H61.4413V72.2344Z" fill="#022B41"/>
<path d="M66.9003 72.2344H64.1709V74.9637H66.9003V72.2344Z" fill="#022B41"/>
<path d="M72.3593 72.2344H69.6299V74.9637H72.3593V72.2344Z" fill="#022B41"/>
<path d="M77.8182 72.2344H75.0889V74.9637H77.8182V72.2344Z" fill="#022B41"/>
<path d="M83.2762 72.2344H80.5469V74.9637H83.2762V72.2344Z" fill="#022B41"/>
<path d="M64.1708 74.9688H61.4414V77.6981H64.1708V74.9688Z" fill="#022B41"/>
<path d="M66.9003 74.9688H64.1709V77.6981H66.9003V74.9688Z" fill="#022B41"/>
<path d="M69.6259 74.9688H66.8965V77.6981H69.6259V74.9688Z" fill="#022B41"/>
<path d="M77.8182 74.9688H75.0889V77.6981H77.8182V74.9688Z" fill="#022B41"/>
<path d="M83.2762 74.9688H80.5469V77.6981H83.2762V74.9688Z" fill="#022B41"/>
<path d="M39.6063 77.6914H36.877V80.4208H39.6063V77.6914Z" fill="#022B41"/>
<path d="M45.0634 77.6914H42.334V80.4208H45.0634V77.6914Z" fill="#022B41"/>
<path d="M55.9823 77.6914H53.2529V80.4208H55.9823V77.6914Z" fill="#022B41"/>
<path d="M58.7118 77.6914H55.9824V80.4208H58.7118V77.6914Z" fill="#022B41"/>
<path d="M69.6298 77.6914H66.9004V80.4208H69.6298V77.6914Z" fill="#022B41"/>
<path d="M77.8192 77.6914H75.0898V80.4208H77.8192V77.6914Z" fill="#022B41"/>
<path d="M83.2762 77.6914H80.5469V80.4208H83.2762V77.6914Z" fill="#022B41"/>
<path d="M91.4618 77.6914H88.7324V80.4208H91.4618V77.6914Z" fill="#022B41"/>
<path d="M99.6503 77.6914H96.9209V80.4208H99.6503V77.6914Z" fill="#022B41"/>
<path d="M105.109 77.6914H102.38V80.4208H105.109V77.6914Z" fill="#022B41"/>
<path d="M39.6054 80.4258H36.876V83.1552H39.6054V80.4258Z" fill="#022B41"/>
<path d="M42.3358 80.4258H39.6064V83.1552H42.3358V80.4258Z" fill="#022B41"/>
<path d="M50.5233 80.4258H47.7939V83.1552H50.5233V80.4258Z" fill="#022B41"/>
<path d="M53.2538 80.4258H50.5244V83.1552H53.2538V80.4258Z" fill="#022B41"/>
<path d="M58.7118 80.4258H55.9824V83.1552H58.7118V80.4258Z" fill="#022B41"/>
<path d="M61.4413 80.4258H58.7119V83.1552H61.4413V80.4258Z" fill="#022B41"/>
<path d="M75.0878 80.4258H72.3584V83.1552H75.0878V80.4258Z" fill="#022B41"/>
<path d="M80.5468 80.4258H77.8174V83.1552H80.5468V80.4258Z" fill="#022B41"/>
<path d="M83.2762 80.4258H80.5469V83.1552H83.2762V80.4258Z" fill="#022B41"/>
<path d="M88.7352 80.4258H86.0059V83.1552H88.7352V80.4258Z" fill="#022B41"/>
<path d="M91.4618 80.4258H88.7324V83.1552H91.4618V80.4258Z" fill="#022B41"/>
<path d="M96.9208 80.4258H94.1914V83.1552H96.9208V80.4258Z" fill="#022B41"/>
<path d="M102.38 80.4258H99.6504V83.1552H102.38V80.4258Z" fill="#022B41"/>
<path d="M105.109 80.4258H102.38V83.1552H105.109V80.4258Z" fill="#022B41"/>
<path d="M50.5233 83.1523H47.7939V85.8817H50.5233V83.1523Z" fill="#022B41"/>
<path d="M53.2538 83.1523H50.5244V85.8817H53.2538V83.1523Z" fill="#022B41"/>
<path d="M55.9823 83.1523H53.2529V85.8817H55.9823V83.1523Z" fill="#022B41"/>
<path d="M58.7118 83.1523H55.9824V85.8817H58.7118V83.1523Z" fill="#022B41"/>
<path d="M64.1708 83.1523H61.4414V85.8817H64.1708V83.1523Z" fill="#022B41"/>
<path d="M66.9003 83.1523H64.1709V85.8817H66.9003V83.1523Z" fill="#022B41"/>
<path d="M72.3593 83.1523H69.6299V85.8817H72.3593V83.1523Z" fill="#022B41"/>
<path d="M80.5468 83.1523H77.8174V85.8817H80.5468V83.1523Z" fill="#022B41"/>
<path d="M83.2762 83.1523H80.5469V85.8817H83.2762V83.1523Z" fill="#022B41"/>
<path d="M96.9237 83.1523H94.1943V85.8817H96.9237V83.1523Z" fill="#022B41"/>
<path d="M99.6532 83.1523H96.9238V85.8817H99.6532V83.1523Z" fill="#022B41"/>
<path d="M105.109 83.1523H102.38V85.8817H105.109V83.1523Z" fill="#022B41"/>
<path d="M39.6054 85.8828H36.876V88.6122H39.6054V85.8828Z" fill="#022B41"/>
<path d="M42.3358 85.8828H39.6064V88.6122H42.3358V85.8828Z" fill="#022B41"/>
<path d="M45.0643 85.8828H42.335V88.6122H45.0643V85.8828Z" fill="#022B41"/>
<path d="M47.7938 85.8828H45.0645V88.6122H47.7938V85.8828Z" fill="#022B41"/>
<path d="M50.5233 85.8828H47.7939V88.6122H50.5233V85.8828Z" fill="#022B41"/>
<path d="M58.7118 85.8828H55.9824V88.6122H58.7118V85.8828Z" fill="#022B41"/>
<path d="M66.9003 85.8828H64.1709V88.6122H66.9003V85.8828Z" fill="#022B41"/>
<path d="M77.8182 85.8828H75.0889V88.6122H77.8182V85.8828Z" fill="#022B41"/>
<path d="M83.2762 85.8828H80.5469V88.6122H83.2762V85.8828Z" fill="#022B41"/>
<path d="M86.0057 85.8828H83.2764V88.6122H86.0057V85.8828Z" fill="#022B41"/>
<path d="M88.7352 85.8828H86.0059V88.6122H88.7352V85.8828Z" fill="#022B41"/>
<path d="M96.9237 85.8828H94.1943V88.6122H96.9237V85.8828Z" fill="#022B41"/>
<path d="M39.6063 88.6094H36.877V91.3387H39.6063V88.6094Z" fill="#022B41"/>
<path d="M45.0634 88.6094H42.334V91.3387H45.0634V88.6094Z" fill="#022B41"/>
<path d="M50.5233 88.6094H47.7939V91.3387H50.5233V88.6094Z" fill="#022B41"/>
<path d="M55.9823 88.6094H53.2529V91.3387H55.9823V88.6094Z" fill="#022B41"/>
<path d="M61.4413 88.6094H58.7119V91.3387H61.4413V88.6094Z" fill="#022B41"/>
<path d="M64.1718 88.6094H61.4424V91.3387H64.1718V88.6094Z" fill="#022B41"/>
<path d="M75.0878 88.6094H72.3584V91.3387H75.0878V88.6094Z" fill="#022B41"/>
<path d="M77.8182 88.6094H75.0889V91.3387H77.8182V88.6094Z" fill="#022B41"/>
<path d="M83.2762 88.6094H80.5469V91.3387H83.2762V88.6094Z" fill="#022B41"/>
<path d="M88.7352 88.6094H86.0059V91.3387H88.7352V88.6094Z" fill="#022B41"/>
<path d="M91.4618 88.6094H88.7324V91.3387H91.4618V88.6094Z" fill="#022B41"/>
<path d="M105.109 88.6094H102.38V91.3387H105.109V88.6094Z" fill="#022B41"/>
<path d="M58.7118 91.3438H55.9824V94.0731H58.7118V91.3438Z" fill="#022B41"/>
<path d="M64.1708 91.3438H61.4414V94.0731H64.1708V91.3438Z" fill="#022B41"/>
<path d="M75.0878 91.3438H72.3584V94.0731H75.0878V91.3438Z" fill="#022B41"/>
<path d="M80.5468 91.3438H77.8174V94.0731H80.5468V91.3438Z" fill="#022B41"/>
<path d="M83.2762 91.3438H80.5469V94.0731H83.2762V91.3438Z" fill="#022B41"/>
<path d="M88.7352 91.3438H86.0059V94.0731H88.7352V91.3438Z" fill="#022B41"/>
<path d="M91.4618 91.3438H88.7324V94.0731H91.4618V91.3438Z" fill="#022B41"/>
<path d="M102.38 91.3438H99.6504V94.0731H102.38V91.3438Z" fill="#022B41"/>
<path d="M105.109 91.3438H102.38V94.0731H105.109V91.3438Z" fill="#022B41"/>
<path d="M39.6063 94.0703H36.877V96.7997H39.6063V94.0703Z" fill="#022B41"/>
<path d="M42.3358 94.0703H39.6064V96.7997H42.3358V94.0703Z" fill="#022B41"/>
<path d="M45.0643 94.0703H42.335V96.7997H45.0643V94.0703Z" fill="#022B41"/>
<path d="M50.5233 94.0703H47.7939V96.7997H50.5233V94.0703Z" fill="#022B41"/>
<path d="M53.2538 94.0703H50.5244V96.7997H53.2538V94.0703Z" fill="#022B41"/>
<path d="M55.9823 94.0703H53.2529V96.7997H55.9823V94.0703Z" fill="#022B41"/>
<path d="M66.9003 94.0703H64.1709V96.7997H66.9003V94.0703Z" fill="#022B41"/>
<path d="M69.6307 94.0703H66.9014V96.7997H69.6307V94.0703Z" fill="#022B41"/>
<path d="M80.5468 94.0703H77.8174V96.7997H80.5468V94.0703Z" fill="#022B41"/>
<path d="M88.7352 94.0703H86.0059V96.7997H88.7352V94.0703Z" fill="#022B41"/>
<path d="M96.9208 94.0703H94.1914V96.7997H96.9208V94.0703Z" fill="#022B41"/>
<path d="M99.6532 94.0703H96.9238V96.7997H99.6532V94.0703Z" fill="#022B41"/>
<path d="M105.109 94.0703H102.38V96.7997H105.109V94.0703Z" fill="#022B41"/>
<path d="M47.7938 96.8008H45.0645V99.5302H47.7938V96.8008Z" fill="#022B41"/>
<path d="M53.2538 96.8008H50.5244V99.5302H53.2538V96.8008Z" fill="#022B41"/>
<path d="M58.7118 96.8008H55.9824V99.5302H58.7118V96.8008Z" fill="#022B41"/>
<path d="M61.4413 96.8008H58.7119V99.5302H61.4413V96.8008Z" fill="#022B41"/>
<path d="M64.1708 96.8008H61.4414V99.5302H64.1708V96.8008Z" fill="#022B41"/>
<path d="M66.9003 96.8008H64.1709V99.5302H66.9003V96.8008Z" fill="#022B41"/>
<path d="M75.0878 96.8008H72.3584V99.5302H75.0878V96.8008Z" fill="#022B41"/>
<path d="M83.2762 96.8008H80.5469V99.5302H83.2762V96.8008Z" fill="#022B41"/>
<path d="M91.4618 96.8008H88.7324V99.5302H91.4618V96.8008Z" fill="#022B41"/>
<path d="M94.1942 96.8008H91.4648V99.5302H94.1942V96.8008Z" fill="#022B41"/>
<path d="M96.9237 96.8008H94.1943V99.5302H96.9237V96.8008Z" fill="#022B41"/>
<path d="M39.6054 99.5273H36.876V102.257H39.6054V99.5273Z" fill="#022B41"/>
<path d="M42.3358 99.5273H39.6064V102.257H42.3358V99.5273Z" fill="#022B41"/>
<path d="M45.0634 99.5273H42.334V102.257H45.0634V99.5273Z" fill="#022B41"/>
<path d="M50.5233 99.5273H47.7939V102.257H50.5233V99.5273Z" fill="#022B41"/>
<path d="M53.2538 99.5273H50.5244V102.257H53.2538V99.5273Z" fill="#022B41"/>
<path d="M55.9823 99.5273H53.2529V102.257H55.9823V99.5273Z" fill="#022B41"/>
<path d="M61.4413 99.5273H58.7119V102.257H61.4413V99.5273Z" fill="#022B41"/>
<path d="M69.6259 99.5273H66.8965V102.257H69.6259V99.5273Z" fill="#022B41"/>
<path d="M72.3593 99.5273H69.6299V102.257H72.3593V99.5273Z" fill="#022B41"/>
<path d="M75.0878 99.5273H72.3584V102.257H75.0878V99.5273Z" fill="#022B41"/>
<path d="M80.5468 99.5273H77.8174V102.257H80.5468V99.5273Z" fill="#022B41"/>
<path d="M83.2762 99.5273H80.5469V102.257H83.2762V99.5273Z" fill="#022B41"/>
<path d="M86.0067 99.5273H83.2773V102.257H86.0067V99.5273Z" fill="#022B41"/>
<path d="M88.7352 99.5273H86.0059V102.257H88.7352V99.5273Z" fill="#022B41"/>
<path d="M91.4618 99.5273H88.7324V102.257H91.4618V99.5273Z" fill="#022B41"/>
<path d="M94.1942 99.5273H91.4648V102.257H94.1942V99.5273Z" fill="#022B41"/>
<path d="M102.38 99.5273H99.6504V102.257H102.38V99.5273Z" fill="#022B41"/>
<path d="M61.4413 102.258H58.7119V104.987H61.4413V102.258Z" fill="#022B41"/>
<path d="M72.3593 102.258H69.6299V104.987H72.3593V102.258Z" fill="#022B41"/>
<path d="M83.2762 102.258H80.5469V104.987H83.2762V102.258Z" fill="#022B41"/>
<path d="M94.1942 102.258H91.4648V104.987H94.1942V102.258Z" fill="#022B41"/>
<path d="M105.109 102.258H102.38V104.987H105.109V102.258Z" fill="#022B41"/>
<path d="M61.4413 104.988H58.7119V107.718H61.4413V104.988Z" fill="#022B41"/>
<path d="M64.1708 104.988H61.4414V107.718H64.1708V104.988Z" fill="#022B41"/>
<path d="M72.3583 104.988H69.6289V107.718H72.3583V104.988Z" fill="#022B41"/>
<path d="M75.0878 104.988H72.3584V107.718H75.0878V104.988Z" fill="#022B41"/>
<path d="M77.8182 104.988H75.0889V107.718H77.8182V104.988Z" fill="#022B41"/>
<path d="M83.2762 104.988H80.5469V107.718H83.2762V104.988Z" fill="#022B41"/>
<path d="M88.7352 104.988H86.0059V107.718H88.7352V104.988Z" fill="#022B41"/>
<path d="M94.1942 104.988H91.4648V107.718H94.1942V104.988Z" fill="#022B41"/>
<path d="M105.109 104.988H102.38V107.718H105.109V104.988Z" fill="#022B41"/>
<path d="M69.6259 107.723H66.8965V110.452H69.6259V107.723Z" fill="#022B41"/>
<path d="M72.3593 107.723H69.6299V110.452H72.3593V107.723Z" fill="#022B41"/>
<path d="M77.8182 107.723H75.0889V110.452H77.8182V107.723Z" fill="#022B41"/>
<path d="M80.5468 107.723H77.8174V110.452H80.5468V107.723Z" fill="#022B41"/>
<path d="M83.2762 107.723H80.5469V110.452H83.2762V107.723Z" fill="#022B41"/>
<path d="M94.1942 107.723H91.4648V110.452H94.1942V107.723Z" fill="#022B41"/>
<path d="M64.1708 110.445H61.4414V113.175H64.1708V110.445Z" fill="#022B41"/>
<path d="M75.0878 110.445H72.3584V113.175H75.0878V110.445Z" fill="#022B41"/>
<path d="M77.8182 110.445H75.0889V113.175H77.8182V110.445Z" fill="#022B41"/>
<path d="M80.5468 110.445H77.8174V113.175H80.5468V110.445Z" fill="#022B41"/>
<path d="M83.2762 110.445H80.5469V113.175H83.2762V110.445Z" fill="#022B41"/>
<path d="M86.0057 110.445H83.2764V113.175H86.0057V110.445Z" fill="#022B41"/>
<path d="M88.7352 110.445H86.0059V113.175H88.7352V110.445Z" fill="#022B41"/>
<path d="M91.4618 110.445H88.7324V113.175H91.4618V110.445Z" fill="#022B41"/>
<path d="M94.1942 110.445H91.4648V113.175H94.1942V110.445Z" fill="#022B41"/>
<path d="M105.109 110.445H102.38V113.175H105.109V110.445Z" fill="#022B41"/>
<path d="M75.0878 113.18H72.3584V115.909H75.0878V113.18Z" fill="#022B41"/>
<path d="M77.8182 113.176H75.0889V115.905H77.8182V113.176Z" fill="#022B41"/>
<path d="M83.2762 113.18H80.5469V115.909H83.2762V113.18Z" fill="#022B41"/>
<path d="M86.0057 113.176H83.2764V115.905H86.0057V113.176Z" fill="#022B41"/>
<path d="M94.1942 113.18H91.4648V115.909H94.1942V113.18Z" fill="#022B41"/>
<path d="M99.6542 113.18H96.9248V115.909H99.6542V113.18Z" fill="#022B41"/>
<path d="M102.38 113.18H99.6504V115.909H102.38V113.18Z" fill="#022B41"/>
<path d="M61.4413 115.906H58.7119V118.636H61.4413V115.906Z" fill="#022B41"/>
<path d="M64.1708 115.906H61.4414V118.636H64.1708V115.906Z" fill="#022B41"/>
<path d="M69.6259 115.906H66.8965V118.636H69.6259V115.906Z" fill="#022B41"/>
<path d="M80.5468 115.906H77.8174V118.636H80.5468V115.906Z" fill="#022B41"/>
<path d="M83.2762 115.906H80.5469V118.636H83.2762V115.906Z" fill="#022B41"/>
<path d="M86.0057 115.906H83.2764V118.636H86.0057V115.906Z" fill="#022B41"/>
<path d="M91.4618 115.906H88.7324V118.636H91.4618V115.906Z" fill="#022B41"/>
<path d="M94.1942 115.906H91.4648V118.636H94.1942V115.906Z" fill="#022B41"/>
<path d="M96.9237 115.906H94.1943V118.636H96.9237V115.906Z" fill="#022B41"/>
<path d="M102.38 115.906H99.6504V118.636H102.38V115.906Z" fill="#022B41"/>
<path d="M105.109 115.906H102.38V118.636H105.109V115.906Z" fill="#022B41"/>
<path d="M64.1708 118.637H61.4414V121.366H64.1708V118.637Z" fill="#022B41"/>
<path d="M66.9003 118.637H64.1709V121.366H66.9003V118.637Z" fill="#022B41"/>
<path d="M75.0878 118.637H72.3584V121.366H75.0878V118.637Z" fill="#022B41"/>
<path d="M83.2762 118.637H80.5469V121.366H83.2762V118.637Z" fill="#022B41"/>
<path d="M86.0067 118.637H83.2773V121.366H86.0067V118.637Z" fill="#022B41"/>
<path d="M91.4618 118.637H88.7324V121.366H91.4618V118.637Z" fill="#022B41"/>
<path d="M94.1942 118.637H91.4648V121.366H94.1942V118.637Z" fill="#022B41"/>
<path d="M61.4413 121.363H58.7119V124.093H61.4413V121.363Z" fill="#022B41"/>
<path d="M64.1708 121.363H61.4414V124.093H64.1708V121.363Z" fill="#022B41"/>
<path d="M66.9003 121.363H64.1709V124.093H66.9003V121.363Z" fill="#022B41"/>
<path d="M69.6307 121.363H66.9014V124.093H69.6307V121.363Z" fill="#022B41"/>
<path d="M72.3593 121.363H69.6299V124.093H72.3593V121.363Z" fill="#022B41"/>
<path d="M75.0878 121.363H72.3584V124.093H75.0878V121.363Z" fill="#022B41"/>
<path d="M83.2762 121.363H80.5469V124.093H83.2762V121.363Z" fill="#022B41"/>
<path d="M88.7352 121.363H86.0059V124.093H88.7352V121.363Z" fill="#022B41"/>
<path d="M96.9237 121.363H94.1943V124.093H96.9237V121.363Z" fill="#022B41"/>
<path d="M105.109 121.363H102.38V124.093H105.109V121.363Z" fill="#022B41"/>
<rect x="37.6629" y="56.6473" width="16.5663" height="16.5663" rx="3.10837" stroke="#022B41" stroke-width="2.82579"/>
<rect x="87.0818" y="56.6473" width="16.5666" height="16.5663" rx="3.10837" stroke="#022B41" stroke-width="2.82579"/>
<rect x="38.2889" y="106.069" width="16.5663" height="16.5663" rx="3.10837" stroke="#022B41" stroke-width="2.82579"/>
<path d="M45.8937 68.8909C48.1104 68.8909 49.9075 67.0938 49.9075 64.8771C49.9075 62.6603 48.1104 60.8633 45.8937 60.8633C43.6769 60.8633 41.8799 62.6603 41.8799 64.8771C41.8799 67.0938 43.6769 68.8909 45.8937 68.8909Z" fill="#022B41"/>
<path d="M95.3126 68.8909C97.5294 68.8909 99.3264 67.0938 99.3264 64.8771C99.3264 62.6603 97.5294 60.8633 95.3126 60.8633C93.0959 60.8633 91.2988 62.6603 91.2988 64.8771C91.2988 67.0938 93.0959 68.8909 95.3126 68.8909Z" fill="#022B41"/>
<path d="M46.3487 118.473C48.5655 118.473 50.3625 116.676 50.3625 114.459C50.3625 112.242 48.5655 110.445 46.3487 110.445C44.132 110.445 42.335 112.242 42.335 114.459C42.335 116.676 44.132 118.473 46.3487 118.473Z" fill="#022B41"/>
<path d="M99.501 47.8203H109.854C111.378 47.8203 112.614 49.0561 112.614 50.5805V60.9333" stroke="#B6B6B6" stroke-width="1.38008"/>
<path d="M99.501 131.602H109.854C111.378 131.602 112.614 130.366 112.614 128.841V118.489" stroke="#B6B6B6" stroke-width="1.38008"/>
<path d="M41.2217 47.8203H31.5973C30.0729 47.8203 28.8372 49.0561 28.8372 50.5805V60.9333" stroke="#B6B6B6" stroke-width="1.38008"/>
<path d="M41.2217 131.602H31.5973C30.0729 131.602 28.8372 130.366 28.8372 128.841V118.489" stroke="#B6B6B6" stroke-width="1.38008"/>
<path d="M74.4951 202.219V202.202C74.4951 200.82 75.6374 199.664 77.2141 199.664C78.7909 199.664 79.9163 200.803 79.9163 202.184V202.202C79.9163 203.583 78.7741 204.739 77.1962 204.739C75.6183 204.739 74.4951 203.6 74.4951 202.219ZM78.2388 202.219V202.202C78.2388 201.61 77.8043 201.107 77.1962 201.107C76.5702 201.107 76.1715 201.6 76.1715 202.184V202.202C76.1715 202.793 76.6072 203.295 77.2141 203.295C77.8412 203.295 78.2399 202.802 78.2399 202.219H78.2388Z" fill="#0C87C9"/>
<path d="M80.335 202.217V202.199C80.335 200.621 81.3327 199.661 82.4929 199.661C83.2365 199.661 83.671 199.994 83.998 200.36V198.074H85.7203V204.62H83.998V203.974C83.662 204.377 83.2365 204.727 82.5019 204.727C81.3417 204.727 80.335 203.768 80.335 202.217ZM84.0305 202.199V202.181C84.0305 201.544 83.5825 201.087 83.0327 201.087C82.4828 201.087 82.0248 201.535 82.0248 202.181V202.199C82.0248 202.845 82.4784 203.306 83.0327 203.306C83.587 203.306 84.0249 202.845 84.0249 202.199H84.0305Z" fill="#0C87C9"/>
<path d="M86.3174 202.219V202.202C86.3174 200.785 87.342 199.664 88.7923 199.664C90.4877 199.664 91.2671 200.892 91.2671 202.322C91.2671 202.433 91.2671 202.556 91.2582 202.672H87.977C88.1125 203.202 88.5022 203.47 89.0375 203.47C89.4451 203.47 89.771 203.318 90.1249 202.977L91.0767 203.752C90.6053 204.345 89.9255 204.739 88.949 204.739C87.4059 204.739 86.3174 203.726 86.3174 202.219ZM89.6534 201.798C89.5907 201.26 89.2727 200.919 88.8012 200.919C88.3477 200.919 88.0397 201.269 87.949 201.798H89.6534Z" fill="#0C87C9"/>
<path d="M93.5983 204.033V204.62H91.876V198.074H93.5983V200.415C93.9343 200.011 94.3508 199.661 95.0843 199.661C96.2546 199.661 97.2602 200.621 97.2602 202.172V202.19C97.2602 203.768 96.2524 204.727 95.0944 204.727C94.8076 204.735 94.5229 204.676 94.2632 204.556C94.0034 204.435 93.7757 204.256 93.5983 204.033ZM95.5659 202.204V202.187C95.5659 201.55 95.1179 201.092 94.558 201.092C93.9981 201.092 93.5602 201.55 93.5602 202.187V202.204C93.5602 202.85 94.0082 203.312 94.558 203.312C95.1079 203.312 95.5659 202.853 95.5659 202.199V202.204Z" fill="#0C87C9"/>
<path d="M97.6768 202.219V202.202C97.6768 200.785 98.7014 199.664 100.152 199.664C101.847 199.664 102.626 200.892 102.626 202.322C102.626 202.433 102.626 202.556 102.618 202.672H99.3364C99.473 203.202 99.8627 203.47 100.397 203.47C100.806 203.47 101.131 203.318 101.485 202.977L102.437 203.752C101.966 204.345 101.286 204.739 100.31 204.739C98.7653 204.739 97.6768 203.726 97.6768 202.219ZM101.013 201.798C100.949 201.26 100.632 200.919 100.161 200.919C99.707 200.919 99.3991 201.269 99.3084 201.798H101.013Z" fill="#0C87C9"/>
<path d="M103.276 198.074H104.999V204.62H103.276V198.074Z" fill="#0C87C9"/>
<path d="M105.864 198.074H107.587V204.62H105.864V198.074Z" fill="#0C87C9"/>
<path d="M74.173 199.85H69.5571C69.5527 199.85 69.5482 199.849 69.5441 199.848C69.5399 199.846 69.5361 199.844 69.533 199.84C69.5298 199.837 69.5273 199.834 69.5257 199.829C69.5241 199.825 69.5233 199.821 69.5235 199.816V199.751C69.5235 199.299 69.7029 198.866 70.0223 198.546C70.3417 198.227 70.7749 198.047 71.2267 198.047H72.5067C72.9586 198.047 73.3918 198.227 73.7112 198.546C74.0306 198.866 74.21 199.299 74.21 199.751V199.816C74.2089 199.825 74.2046 199.834 74.1978 199.84C74.191 199.846 74.1822 199.85 74.173 199.85Z" fill="#0C87C9"/>
<path d="M72.4071 202.938H69.5234C69.5228 203.415 69.7118 203.872 70.0487 204.21C70.3857 204.548 70.8432 204.739 71.3208 204.741H74.21C74.2102 204.504 74.1636 204.27 74.0731 204.051C73.9826 203.832 73.8498 203.634 73.6824 203.466C73.515 203.299 73.3162 203.166 73.0974 203.075C72.8785 202.984 72.644 202.938 72.4071 202.938Z" fill="#0C87C9"/>
<path d="M71.6064 202.941H69.5234V199.782C69.5233 199.554 69.5672 199.329 69.6528 199.118C69.7384 198.908 69.8638 198.717 70.0221 198.556C70.1803 198.394 70.3682 198.267 70.5751 198.179C70.7819 198.092 71.0036 198.047 71.2275 198.047H71.6064V202.941Z" fill="#0C87C9"/>
<path opacity="0.88" d="M33.4362 203.691V199.737H35.0065C35.2476 199.737 35.4622 199.786 35.6505 199.884C35.8425 199.978 35.9913 200.114 36.0967 200.291C36.2059 200.464 36.2605 200.673 36.2605 200.918V200.991C36.2605 201.236 36.204 201.447 36.0911 201.624C35.9819 201.801 35.8331 201.937 35.6448 202.031C35.4566 202.125 35.2438 202.172 35.0065 202.172H34.0463V203.691H33.4362ZM34.0463 201.618H34.9444C35.1591 201.618 35.3304 201.562 35.4584 201.449C35.5865 201.336 35.6505 201.182 35.6505 200.986V200.929C35.6505 200.73 35.5865 200.573 35.4584 200.46C35.3304 200.347 35.1591 200.291 34.9444 200.291H34.0463V201.618ZM38.0843 203.77C37.8056 203.77 37.5571 203.714 37.3387 203.601C37.124 203.484 36.9546 203.319 36.8303 203.104C36.706 202.889 36.6439 202.635 36.6439 202.341V202.257C36.6439 201.963 36.706 201.711 36.8303 201.5C36.9546 201.285 37.124 201.119 37.3387 201.003C37.5571 200.886 37.8056 200.828 38.0843 200.828C38.3629 200.828 38.6115 200.886 38.8299 201.003C39.0483 201.119 39.2197 201.285 39.3439 201.5C39.4682 201.711 39.5303 201.963 39.5303 202.257V202.341C39.5303 202.635 39.4682 202.889 39.3439 203.104C39.2197 203.319 39.0483 203.484 38.8299 203.601C38.6115 203.714 38.3629 203.77 38.0843 203.77ZM38.0843 203.251C38.3404 203.251 38.5475 203.17 38.7056 203.008C38.8676 202.842 38.9485 202.614 38.9485 202.324V202.274C38.9485 201.984 38.8694 201.758 38.7113 201.596C38.5531 201.43 38.3441 201.347 38.0843 201.347C37.832 201.347 37.6249 201.43 37.4629 201.596C37.3048 201.758 37.2257 201.984 37.2257 202.274V202.324C37.2257 202.614 37.3048 202.842 37.4629 203.008C37.6249 203.17 37.832 203.251 38.0843 203.251ZM40.5266 203.691L40.0521 200.907H40.6339L40.9841 203.302H41.0745L41.5603 200.907H42.5036L42.9837 203.302H43.0741L43.4243 200.907H44.0061L43.5317 203.691H42.5544L42.0743 201.302H41.9839L41.5038 203.691H40.5266ZM45.9387 203.77C45.6563 203.77 45.4096 203.712 45.1987 203.595C44.9879 203.475 44.8222 203.307 44.7017 203.093C44.5849 202.874 44.5266 202.622 44.5266 202.336V202.268C44.5266 201.978 44.5849 201.726 44.7017 201.511C44.8184 201.293 44.9803 201.125 45.1874 201.008C45.3983 200.888 45.6412 200.828 45.9161 200.828C46.1835 200.828 46.417 200.888 46.6165 201.008C46.8199 201.125 46.9781 201.289 47.091 201.5C47.204 201.711 47.2605 201.957 47.2605 202.24V202.46H45.1197C45.1272 202.705 45.2082 202.901 45.3626 203.047C45.5207 203.191 45.7165 203.262 45.95 203.262C46.1684 203.262 46.3322 203.213 46.4414 203.115C46.5544 203.017 46.641 202.904 46.7013 202.776L47.1814 203.025C47.1287 203.13 47.0515 203.241 46.9498 203.358C46.8519 203.475 46.722 203.573 46.5601 203.652C46.3981 203.731 46.191 203.77 45.9387 203.77ZM45.1253 202.014H46.6674C46.6523 201.803 46.577 201.639 46.4414 201.522C46.3059 201.402 46.1289 201.342 45.9105 201.342C45.6921 201.342 45.5132 201.402 45.3738 201.522C45.2383 201.639 45.1554 201.803 45.1253 202.014ZM47.9608 203.691V200.907H48.5313V201.234H48.6217C48.6669 201.118 48.7384 201.033 48.8364 200.98C48.938 200.924 49.0623 200.895 49.2092 200.895H49.5424V201.421H49.1866C48.9983 201.421 48.8439 201.473 48.7234 201.579C48.6029 201.681 48.5426 201.839 48.5426 202.053V203.691H47.9608ZM51.3225 203.77C51.0401 203.77 50.7934 203.712 50.5826 203.595C50.3717 203.475 50.206 203.307 50.0855 203.093C49.9688 202.874 49.9104 202.622 49.9104 202.336V202.268C49.9104 201.978 49.9688 201.726 50.0855 201.511C50.2022 201.293 50.3642 201.125 50.5713 201.008C50.7822 200.888 51.025 200.828 51.2999 200.828C51.5673 200.828 51.8008 200.888 52.0004 201.008C52.2037 201.125 52.3619 201.289 52.4748 201.5C52.5878 201.711 52.6443 201.957 52.6443 202.24V202.46H50.5035C50.511 202.705 50.592 202.901 50.7464 203.047C50.9045 203.191 51.1004 203.262 51.3338 203.262C51.5522 203.262 51.7161 203.213 51.8253 203.115C51.9382 203.017 52.0248 202.904 52.0851 202.776L52.5652 203.025C52.5125 203.13 52.4353 203.241 52.3336 203.358C52.2357 203.475 52.1058 203.573 51.9439 203.652C51.782 203.731 51.5748 203.77 51.3225 203.77ZM50.5091 202.014H52.0512C52.0361 201.803 51.9608 201.639 51.8253 201.522C51.6897 201.402 51.5127 201.342 51.2943 201.342C51.0759 201.342 50.897 201.402 50.7577 201.522C50.6221 201.639 50.5393 201.803 50.5091 202.014ZM54.497 203.77C54.2672 203.77 54.0545 203.714 53.8587 203.601C53.6628 203.488 53.5047 203.326 53.3842 203.115C53.2674 202.901 53.2091 202.643 53.2091 202.341V202.257C53.2091 201.959 53.2674 201.703 53.3842 201.488C53.5009 201.274 53.6572 201.11 53.853 200.997C54.0488 200.884 54.2635 200.828 54.497 200.828C54.6777 200.828 54.8283 200.85 54.9488 200.895C55.0731 200.941 55.1748 200.999 55.2539 201.07C55.333 201.138 55.3932 201.21 55.4346 201.285H55.525V199.737H56.1068V203.691H55.5363V203.296H55.4459C55.3744 203.417 55.2652 203.526 55.1183 203.624C54.9752 203.722 54.7681 203.77 54.497 203.77ZM54.6608 203.262C54.9131 203.262 55.1202 203.181 55.2821 203.019C55.4478 202.857 55.5307 202.626 55.5307 202.324V202.274C55.5307 201.976 55.4497 201.746 55.2878 201.584C55.1258 201.423 54.9168 201.342 54.6608 201.342C54.4122 201.342 54.2051 201.423 54.0394 201.584C53.8775 201.746 53.7965 201.976 53.7965 202.274V202.324C53.7965 202.626 53.8775 202.857 54.0394 203.019C54.2051 203.181 54.4122 203.262 54.6608 203.262ZM60.0129 203.77C59.7417 203.77 59.5327 203.722 59.3859 203.624C59.2428 203.526 59.1354 203.417 59.0639 203.296H58.9735V203.691H58.403V199.737H58.9848V201.285H59.0752C59.1204 201.21 59.1806 201.138 59.256 201.07C59.3313 200.999 59.4311 200.941 59.5553 200.895C59.6796 200.85 59.8321 200.828 60.0129 200.828C60.2463 200.828 60.461 200.884 60.6568 200.997C60.8526 201.11 61.0089 201.274 61.1256 201.488C61.2424 201.703 61.3007 201.959 61.3007 202.257V202.341C61.3007 202.643 61.2405 202.901 61.12 203.115C61.0033 203.326 60.847 203.488 60.6512 203.601C60.4591 203.714 60.2463 203.77 60.0129 203.77ZM59.8434 203.262C60.0957 203.262 60.3028 203.181 60.4648 203.019C60.6304 202.857 60.7133 202.626 60.7133 202.324V202.274C60.7133 201.976 60.6323 201.746 60.4704 201.584C60.3085 201.423 60.0995 201.342 59.8434 201.342C59.5949 201.342 59.3878 201.423 59.2221 201.584C59.0601 201.746 58.9792 201.976 58.9792 202.274V202.324C58.9792 202.626 59.0601 202.857 59.2221 203.019C59.3878 203.181 59.5949 203.262 59.8434 203.262ZM62.3436 204.821V204.313H63.897C64.0024 204.313 64.0551 204.256 64.0551 204.143V203.285H63.9648C63.9309 203.36 63.8782 203.433 63.8066 203.505C63.7388 203.573 63.6466 203.629 63.5298 203.674C63.4131 203.72 63.2662 203.742 63.0892 203.742C62.8784 203.742 62.6901 203.695 62.5244 203.601C62.3587 203.507 62.2288 203.373 62.1346 203.2C62.0405 203.027 61.9934 202.822 61.9934 202.584V200.907H62.5752V202.539C62.5752 202.78 62.6355 202.959 62.756 203.076C62.8765 203.189 63.044 203.245 63.2587 203.245C63.4959 203.245 63.6861 203.166 63.8292 203.008C63.9761 202.85 64.0495 202.62 64.0495 202.319V200.907H64.6313V204.262C64.6313 204.431 64.5805 204.567 64.4788 204.669C64.3809 204.77 64.2453 204.821 64.0721 204.821H62.3436Z" fill="#343434"/>
<path d="M44.1744 144.569C43.87 144.569 43.5972 144.519 43.356 144.421C43.1148 144.322 42.921 144.175 42.7747 143.982C42.6324 143.788 42.5573 143.555 42.5493 143.282H43.6288C43.6446 143.436 43.698 143.555 43.7889 143.638C43.8799 143.717 43.9985 143.756 44.1448 143.756C44.295 143.756 44.4137 143.723 44.5007 143.655C44.5876 143.584 44.6311 143.487 44.6311 143.365C44.6311 143.262 44.5956 143.177 44.5244 143.11C44.4572 143.043 44.3721 142.987 44.2693 142.944C44.1705 142.9 44.0281 142.851 43.8423 142.795C43.5734 142.712 43.354 142.629 43.184 142.546C43.0139 142.463 42.8676 142.341 42.7451 142.179C42.6225 142.017 42.5612 141.805 42.5612 141.544C42.5612 141.157 42.7016 140.854 42.9823 140.637C43.263 140.415 43.6288 140.304 44.0796 140.304C44.5382 140.304 44.9079 140.415 45.1887 140.637C45.4694 140.854 45.6196 141.159 45.6394 141.55H44.5422C44.5343 141.416 44.4848 141.311 44.3939 141.236C44.303 141.157 44.1863 141.117 44.044 141.117C43.9214 141.117 43.8225 141.151 43.7474 141.218C43.6723 141.281 43.6347 141.374 43.6347 141.497C43.6347 141.631 43.698 141.736 43.8245 141.811C43.951 141.886 44.1487 141.967 44.4176 142.054C44.6865 142.145 44.904 142.232 45.07 142.315C45.2401 142.398 45.3864 142.519 45.5089 142.677C45.6315 142.835 45.6928 143.039 45.6928 143.288C45.6928 143.525 45.6315 143.74 45.5089 143.934C45.3903 144.128 45.2163 144.282 44.987 144.397C44.7577 144.512 44.4868 144.569 44.1744 144.569ZM46.1449 142.44C46.1449 142.028 46.2339 141.663 46.4118 141.342C46.5898 141.018 46.8369 140.767 47.1532 140.589C47.4735 140.407 47.8353 140.316 48.2386 140.316C48.7329 140.316 49.1559 140.447 49.5078 140.708C49.8597 140.969 50.095 141.325 50.2136 141.775H49.0986C49.0156 141.601 48.8969 141.469 48.7427 141.378C48.5925 141.287 48.4205 141.242 48.2267 141.242C47.9144 141.242 47.6613 141.35 47.4676 141.568C47.2738 141.785 47.1769 142.076 47.1769 142.44C47.1769 142.803 47.2738 143.094 47.4676 143.311C47.6613 143.529 47.9144 143.638 48.2267 143.638C48.4205 143.638 48.5925 143.592 48.7427 143.501C48.8969 143.41 49.0156 143.278 49.0986 143.104H50.2136C50.095 143.555 49.8597 143.911 49.5078 144.171C49.1559 144.428 48.7329 144.557 48.2386 144.557C47.8353 144.557 47.4735 144.468 47.1532 144.29C46.8369 144.108 46.5898 143.857 46.4118 143.537C46.2339 143.217 46.1449 142.851 46.1449 142.44ZM53.4266 143.792H51.8727L51.6235 144.527H50.5619L52.0684 140.364H53.2427L54.7492 144.527H53.6757L53.4266 143.792ZM53.1656 143.009L52.6496 141.485L52.1395 143.009H53.1656ZM58.9324 144.527H57.9182L56.2219 141.959V144.527H55.2077V140.364H56.2219L57.9182 142.944V140.364H58.9324V144.527ZM63.9196 140.364V141.176H62.8164V144.527H61.8022V141.176H60.6991V140.364H63.9196ZM66.3977 144.569C66.0063 144.569 65.6464 144.478 65.3183 144.296C64.994 144.114 64.735 143.861 64.5413 143.537C64.3515 143.209 64.2566 142.841 64.2566 142.434C64.2566 142.026 64.3515 141.661 64.5413 141.336C64.735 141.012 64.994 140.759 65.3183 140.577C65.6464 140.395 66.0063 140.304 66.3977 140.304C66.7892 140.304 67.147 140.395 67.4712 140.577C67.7994 140.759 68.0564 141.012 68.2423 141.336C68.4321 141.661 68.527 142.026 68.527 142.434C68.527 142.841 68.4321 143.209 68.2423 143.537C68.0525 143.861 67.7955 144.114 67.4712 144.296C67.147 144.478 66.7892 144.569 66.3977 144.569ZM66.3977 143.644C66.7298 143.644 66.9948 143.533 67.1925 143.311C67.3941 143.09 67.495 142.797 67.495 142.434C67.495 142.066 67.3941 141.773 67.1925 141.556C66.9948 141.334 66.7298 141.224 66.3977 141.224C66.0616 141.224 65.7927 141.332 65.5911 141.55C65.3934 141.767 65.2945 142.062 65.2945 142.434C65.2945 142.801 65.3934 143.096 65.5911 143.317C65.7927 143.535 66.0616 143.644 66.3977 143.644ZM70.1761 142.44C70.1761 142.028 70.265 141.663 70.443 141.342C70.6209 141.018 70.868 140.767 71.1843 140.589C71.5046 140.407 71.8664 140.316 72.2697 140.316C72.764 140.316 73.187 140.447 73.539 140.708C73.8909 140.969 74.1261 141.325 74.2447 141.775H73.1297C73.0467 141.601 72.9281 141.469 72.7739 141.378C72.6236 141.287 72.4516 141.242 72.2579 141.242C71.9455 141.242 71.6924 141.35 71.4987 141.568C71.3049 141.785 71.2081 142.076 71.2081 142.44C71.2081 142.803 71.3049 143.094 71.4987 143.311C71.6924 143.529 71.9455 143.638 72.2579 143.638C72.4516 143.638 72.6236 143.592 72.7739 143.501C72.9281 143.41 73.0467 143.278 73.1297 143.104H74.2447C74.1261 143.555 73.8909 143.911 73.539 144.171C73.187 144.428 72.764 144.557 72.2697 144.557C71.8664 144.557 71.5046 144.468 71.1843 144.29C70.868 144.108 70.6209 143.857 70.443 143.537C70.265 143.217 70.1761 142.851 70.1761 142.44ZM76.8349 144.569C76.4435 144.569 76.0837 144.478 75.7555 144.296C75.4313 144.114 75.1723 143.861 74.9785 143.537C74.7887 143.209 74.6938 142.841 74.6938 142.434C74.6938 142.026 74.7887 141.661 74.9785 141.336C75.1723 141.012 75.4313 140.759 75.7555 140.577C76.0837 140.395 76.4435 140.304 76.8349 140.304C77.2264 140.304 77.5842 140.395 77.9085 140.577C78.2366 140.759 78.4937 141.012 78.6795 141.336C78.8693 141.661 78.9642 142.026 78.9642 142.434C78.9642 142.841 78.8693 143.209 78.6795 143.537C78.4897 143.861 78.2327 144.114 77.9085 144.296C77.5842 144.478 77.2264 144.569 76.8349 144.569ZM76.8349 143.644C77.1671 143.644 77.432 143.533 77.6297 143.311C77.8314 143.09 77.9322 142.797 77.9322 142.434C77.9322 142.066 77.8314 141.773 77.6297 141.556C77.432 141.334 77.1671 141.224 76.8349 141.224C76.4989 141.224 76.23 141.332 76.0283 141.55C75.8306 141.767 75.7318 142.062 75.7318 142.434C75.7318 142.801 75.8306 143.096 76.0283 143.317C76.23 143.535 76.4989 143.644 76.8349 143.644ZM83.2531 144.527H82.2389L80.5426 141.959V144.527H79.5284V140.364H80.5426L82.2389 142.944V140.364H83.2531V144.527ZM86.9834 140.364V141.176H85.8803V144.527H84.8661V141.176H83.7629V140.364H86.9834ZM90.0843 143.792H88.5304L88.2813 144.527H87.2196L88.7261 140.364H89.9005L91.4069 144.527H90.3334L90.0843 143.792ZM89.8234 143.009L89.3074 141.485L88.7973 143.009H89.8234ZM91.6934 142.44C91.6934 142.028 91.7824 141.663 91.9603 141.342C92.1383 141.018 92.3854 140.767 92.7017 140.589C93.022 140.407 93.3838 140.316 93.7871 140.316C94.2813 140.316 94.7044 140.447 95.0563 140.708C95.4082 140.969 95.6435 141.325 95.7621 141.775H94.6471C94.5641 141.601 94.4454 141.469 94.2912 141.378C94.141 141.287 93.969 141.242 93.7752 141.242C93.4629 141.242 93.2098 141.35 93.0161 141.568C92.8223 141.785 92.7254 142.076 92.7254 142.44C92.7254 142.803 92.8223 143.094 93.0161 143.311C93.2098 143.529 93.4629 143.638 93.7752 143.638C93.969 143.638 94.141 143.592 94.2912 143.501C94.4454 143.41 94.5641 143.278 94.6471 143.104H95.7621C95.6435 143.555 95.4082 143.911 95.0563 144.171C94.7044 144.428 94.2813 144.557 93.7871 144.557C93.3838 144.557 93.022 144.468 92.7017 144.29C92.3854 144.108 92.1383 143.857 91.9603 143.537C91.7824 143.217 91.6934 142.851 91.6934 142.44ZM99.3784 140.364V141.176H98.2752V144.527H97.261V141.176H96.1578V140.364H99.3784ZM42.1995 149.364V150.176H41.0963V153.527H40.0821V150.176H38.979V149.364H42.1995ZM46.3146 149.364V153.527H45.3004V151.813H43.7227V153.527H42.7085V149.364H43.7227V150.995H45.3004V149.364H46.3146ZM48.0609 150.176V151.019H49.4192V151.801H48.0609V152.715H49.5971V153.527H47.0467V149.364H49.5971V150.176H48.0609ZM52.5266 152.744H53.8551V153.527H51.5124V149.364H52.5266V152.744ZM55.3353 149.364V151.855C55.3353 152.104 55.3966 152.296 55.5192 152.43C55.6417 152.565 55.8217 152.632 56.0589 152.632C56.2961 152.632 56.478 152.565 56.6046 152.43C56.7311 152.296 56.7943 152.104 56.7943 151.855V149.364H57.8086V151.849C57.8086 152.221 57.7295 152.535 57.5713 152.792C57.4131 153.049 57.1996 153.243 56.9308 153.373C56.6658 153.504 56.3693 153.569 56.0411 153.569C55.7129 153.569 55.4183 153.506 55.1574 153.379C54.9004 153.249 54.6967 153.055 54.5465 152.798C54.3962 152.537 54.3211 152.221 54.3211 151.849V149.364H55.3353ZM61.2846 150.68C61.2095 150.542 61.1007 150.437 60.9584 150.366C60.82 150.291 60.6559 150.253 60.4661 150.253C60.1379 150.253 59.875 150.362 59.6773 150.58C59.4796 150.793 59.3807 151.08 59.3807 151.44C59.3807 151.823 59.4835 152.124 59.6892 152.341C59.8987 152.555 60.1854 152.661 60.5492 152.661C60.7983 152.661 61.0078 152.598 61.1778 152.472C61.3518 152.345 61.4783 152.163 61.5574 151.926H60.2704V151.179H62.4767V152.122C62.4016 152.375 62.2731 152.61 62.0912 152.827C61.9133 153.045 61.6859 153.221 61.4092 153.355C61.1324 153.49 60.82 153.557 60.472 153.557C60.0608 153.557 59.6931 153.468 59.3689 153.29C59.0486 153.108 58.7975 152.857 58.6156 152.537C58.4377 152.217 58.3487 151.851 58.3487 151.44C58.3487 151.028 58.4377 150.663 58.6156 150.342C58.7975 150.018 59.0486 149.767 59.3689 149.589C59.6892 149.407 60.0549 149.316 60.4661 149.316C60.9643 149.316 61.3835 149.437 61.7235 149.678C62.0675 149.919 62.2949 150.253 62.4056 150.68H61.2846ZM65.8024 150.68C65.7273 150.542 65.6185 150.437 65.4762 150.366C65.3378 150.291 65.1737 150.253 64.9839 150.253C64.6557 150.253 64.3928 150.362 64.1951 150.58C63.9974 150.793 63.8985 151.08 63.8985 151.44C63.8985 151.823 64.0013 152.124 64.2069 152.341C64.4165 152.555 64.7032 152.661 65.0669 152.661C65.316 152.661 65.5256 152.598 65.6956 152.472C65.8696 152.345 65.9961 152.163 66.0752 151.926H64.7882V151.179H66.9945V152.122C66.9194 152.375 66.7909 152.61 66.609 152.827C66.4311 153.045 66.2037 153.221 65.9269 153.355C65.6502 153.49 65.3378 153.557 64.9898 153.557C64.5786 153.557 64.2109 153.468 63.8867 153.29C63.5664 153.108 63.3153 152.857 63.1334 152.537C62.9555 152.217 62.8665 151.851 62.8665 151.44C62.8665 151.028 62.9555 150.663 63.1334 150.342C63.3153 150.018 63.5664 149.767 63.8867 149.589C64.2069 149.407 64.5727 149.316 64.9839 149.316C65.4821 149.316 65.9012 149.437 66.2413 149.678C66.5853 149.919 66.8126 150.253 66.9233 150.68H65.8024ZM70.1482 152.792H68.5942L68.3451 153.527H67.2835L68.79 149.364H69.9643L71.4708 153.527H70.3973L70.1482 152.792ZM69.8872 152.009L69.3712 150.485L68.8611 152.009H69.8872ZM74.6931 150.68C74.618 150.542 74.5093 150.437 74.3669 150.366C74.2285 150.291 74.0645 150.253 73.8747 150.253C73.5465 150.253 73.2835 150.362 73.0858 150.58C72.8881 150.793 72.7893 151.08 72.7893 151.44C72.7893 151.823 72.8921 152.124 73.0977 152.341C73.3073 152.555 73.5939 152.661 73.9577 152.661C74.2068 152.661 74.4164 152.598 74.5864 152.472C74.7604 152.345 74.8869 152.163 74.966 151.926H73.6789V151.179H75.8853V152.122C75.8102 152.375 75.6816 152.61 75.4998 152.827C75.3218 153.045 75.0945 153.221 74.8177 153.355C74.5409 153.49 74.2285 153.557 73.8806 153.557C73.4694 153.557 73.1016 153.468 72.7774 153.29C72.4571 153.108 72.2061 152.857 72.0242 152.537C71.8462 152.217 71.7573 151.851 71.7573 151.44C71.7573 151.028 71.8462 150.663 72.0242 150.342C72.2061 150.018 72.4571 149.767 72.7774 149.589C73.0977 149.407 73.4634 149.316 73.8747 149.316C74.3729 149.316 74.792 149.437 75.132 149.678C75.476 149.919 75.7034 150.253 75.8141 150.68H74.6931ZM77.4613 150.176V151.019H78.8195V151.801H77.4613V152.715H78.9974V153.527H76.4471V149.364H78.9974V150.176H77.4613ZM82.8818 153.569C82.4904 153.569 82.1306 153.478 81.8024 153.296C81.4781 153.114 81.2191 152.861 81.0254 152.537C80.8356 152.209 80.7407 151.841 80.7407 151.434C80.7407 151.026 80.8356 150.661 81.0254 150.336C81.2191 150.012 81.4781 149.759 81.8024 149.577C82.1306 149.395 82.4904 149.304 82.8818 149.304C83.2733 149.304 83.6311 149.395 83.9553 149.577C84.2835 149.759 84.5405 150.012 84.7264 150.336C84.9162 150.661 85.0111 151.026 85.0111 151.434C85.0111 151.841 84.9162 152.209 84.7264 152.537C84.5366 152.861 84.2796 153.114 83.9553 153.296C83.6311 153.478 83.2733 153.569 82.8818 153.569ZM82.8818 152.644C83.214 152.644 83.4789 152.533 83.6766 152.311C83.8782 152.09 83.9791 151.797 83.9791 151.434C83.9791 151.066 83.8782 150.773 83.6766 150.556C83.4789 150.334 83.214 150.224 82.8818 150.224C82.5457 150.224 82.2768 150.332 82.0752 150.55C81.8775 150.767 81.7786 151.062 81.7786 151.434C81.7786 151.801 81.8775 152.096 82.0752 152.317C82.2768 152.535 82.5457 152.644 82.8818 152.644ZM91.3047 149.364L90.2193 153.527H88.9916L88.3273 150.787L87.6393 153.527H86.4116L85.3558 149.364H86.4412L87.0403 152.395L87.7816 149.364H88.8967L89.6084 152.395L90.2134 149.364H91.3047ZM95.538 153.527H94.5238L92.8275 150.959V153.527H91.8133V149.364H92.8275L94.5238 151.944V149.364H95.538V153.527ZM97.2874 150.176V151.019H98.6456V151.801H97.2874V152.715H98.8235V153.527H96.2732V149.364H98.8235V150.176H97.2874ZM101.605 153.527L100.739 151.956H100.496V153.527H99.4819V149.364H101.184C101.512 149.364 101.791 149.421 102.02 149.536C102.254 149.65 102.428 149.809 102.542 150.01C102.657 150.208 102.714 150.429 102.714 150.675C102.714 150.951 102.635 151.198 102.477 151.416C102.323 151.633 102.094 151.788 101.789 151.879L102.75 153.527H101.605ZM100.496 151.238H101.125C101.311 151.238 101.449 151.192 101.54 151.102C101.635 151.011 101.682 150.882 101.682 150.716C101.682 150.558 101.635 150.433 101.54 150.342C101.449 150.251 101.311 150.206 101.125 150.206H100.496V151.238Z" fill="#0A0A0A"/>
<path d="M35.7755 167.363V164.249H37.0121C37.2019 164.249 37.3709 164.288 37.5192 164.365C37.6704 164.439 37.7876 164.546 37.8706 164.685C37.9566 164.822 37.9996 164.986 37.9996 165.179V165.237C37.9996 165.43 37.9551 165.596 37.8662 165.735C37.7802 165.875 37.663 165.981 37.5147 166.055C37.3665 166.13 37.1989 166.167 37.0121 166.167H36.2559V167.363H35.7755ZM36.2559 165.731H36.9632C37.1322 165.731 37.2671 165.686 37.3679 165.597C37.4688 165.508 37.5192 165.387 37.5192 165.233V165.188C37.5192 165.031 37.4688 164.908 37.3679 164.819C37.2671 164.73 37.1322 164.685 36.9632 164.685H36.2559V165.731ZM39.4136 167.426C39.1911 167.426 38.9969 167.38 38.8308 167.288C38.6648 167.193 38.5343 167.061 38.4394 166.892C38.3475 166.72 38.3015 166.521 38.3015 166.296V166.242C38.3015 166.014 38.3475 165.815 38.4394 165.646C38.5313 165.474 38.6588 165.342 38.8219 165.25C38.988 165.155 39.1793 165.108 39.3958 165.108C39.6063 165.108 39.7902 165.155 39.9474 165.25C40.1075 165.342 40.232 165.471 40.321 165.637C40.41 165.803 40.4545 165.998 40.4545 166.22V166.394H38.7686C38.7745 166.586 38.8382 166.741 38.9598 166.856C39.0844 166.969 39.2386 167.025 39.4225 167.025C39.5945 167.025 39.7235 166.987 39.8095 166.91C39.8984 166.832 39.9666 166.743 40.0141 166.643L40.3922 166.838C40.3507 166.921 40.2899 167.009 40.2098 167.101C40.1327 167.193 40.0304 167.27 39.9029 167.332C39.7754 167.394 39.6122 167.426 39.4136 167.426ZM38.773 166.042H39.9874C39.9755 165.876 39.9162 165.747 39.8095 165.655C39.7027 165.56 39.5633 165.513 39.3913 165.513C39.2193 165.513 39.0785 165.56 38.9687 165.655C38.862 165.747 38.7967 165.876 38.773 166.042ZM41.006 167.363V165.17H41.4552V165.428H41.5264C41.562 165.336 41.6184 165.27 41.6955 165.228C41.7755 165.184 41.8734 165.161 41.989 165.161H42.2515V165.575H41.9712C41.823 165.575 41.7014 165.617 41.6065 165.7C41.5116 165.78 41.4641 165.904 41.4641 166.073V167.363H41.006ZM43.577 167.426C43.2982 167.426 43.0669 167.363 42.883 167.239C42.6992 167.114 42.5865 166.926 42.545 166.674L42.972 166.571C42.9957 166.693 43.0358 166.789 43.0921 166.861C43.1485 166.932 43.2181 166.982 43.3012 167.012C43.3872 167.042 43.4791 167.056 43.577 167.056C43.7223 167.056 43.8335 167.028 43.9106 166.972C43.9907 166.915 44.0307 166.843 44.0307 166.754C44.0307 166.665 43.9936 166.6 43.9195 166.558C43.8454 166.517 43.7356 166.483 43.5903 166.456L43.4391 166.429C43.2908 166.402 43.1559 166.364 43.0343 166.313C42.9127 166.263 42.8163 166.193 42.7451 166.104C42.674 166.015 42.6384 165.901 42.6384 165.762C42.6384 165.554 42.7155 165.394 42.8697 165.281C43.0239 165.166 43.2285 165.108 43.4836 165.108C43.7297 165.108 43.9314 165.164 44.0885 165.277C44.2487 165.387 44.3525 165.537 44.3999 165.726L43.9729 165.846C43.9462 165.713 43.8898 165.62 43.8038 165.566C43.7178 165.51 43.6111 165.482 43.4836 165.482C43.359 165.482 43.2611 165.505 43.19 165.553C43.1188 165.597 43.0832 165.661 43.0832 165.744C43.0832 165.833 43.1173 165.898 43.1855 165.94C43.2567 165.981 43.3516 166.012 43.4702 166.033L43.6259 166.06C43.7831 166.087 43.9269 166.124 44.0574 166.171C44.1879 166.219 44.2902 166.287 44.3643 166.376C44.4414 166.465 44.48 166.583 44.48 166.732C44.48 166.951 44.3984 167.122 44.2353 167.243C44.0722 167.365 43.8528 167.426 43.577 167.426ZM46.0431 167.426C45.8236 167.426 45.6279 167.381 45.4559 167.292C45.2868 167.2 45.1534 167.07 45.0555 166.901C44.9577 166.732 44.9087 166.531 44.9087 166.3V166.233C44.9087 166.002 44.9577 165.803 45.0555 165.637C45.1534 165.468 45.2868 165.338 45.4559 165.246C45.6279 165.154 45.8236 165.108 46.0431 165.108C46.2625 165.108 46.4582 165.154 46.6302 165.246C46.8022 165.338 46.9372 165.468 47.035 165.637C47.1329 165.803 47.1818 166.002 47.1818 166.233V166.3C47.1818 166.531 47.1329 166.732 47.035 166.901C46.9372 167.07 46.8022 167.2 46.6302 167.292C46.4582 167.381 46.2625 167.426 46.0431 167.426ZM46.0431 167.016C46.2447 167.016 46.4078 166.953 46.5324 166.825C46.6599 166.695 46.7236 166.515 46.7236 166.287V166.247C46.7236 166.018 46.6614 165.84 46.5368 165.713C46.4123 165.582 46.2477 165.517 46.0431 165.517C45.8444 165.517 45.6813 165.582 45.5537 165.713C45.4292 165.84 45.3669 166.018 45.3669 166.247V166.287C45.3669 166.515 45.4292 166.695 45.5537 166.825C45.6813 166.953 45.8444 167.016 46.0431 167.016ZM47.7522 167.363V165.17H48.2015V165.499H48.2727C48.3142 165.41 48.3883 165.327 48.4951 165.25C48.6019 165.173 48.7605 165.135 48.9711 165.135C49.1371 165.135 49.2839 165.172 49.4114 165.246C49.5419 165.32 49.6442 165.425 49.7184 165.562C49.7925 165.695 49.8296 165.857 49.8296 166.047V167.363H49.3714V166.082C49.3714 165.892 49.324 165.753 49.2291 165.664C49.1342 165.572 49.0037 165.526 48.8376 165.526C48.6478 165.526 48.4951 165.588 48.3794 165.713C48.2668 165.838 48.2104 166.018 48.2104 166.256V167.363H47.7522ZM51.1696 167.426C51.0124 167.426 50.8715 167.399 50.747 167.345C50.6254 167.292 50.5275 167.214 50.4534 167.11C50.3822 167.006 50.3466 166.88 50.3466 166.732C50.3466 166.58 50.3822 166.456 50.4534 166.358C50.5275 166.257 50.6269 166.182 50.7514 166.131C50.8789 166.081 51.0228 166.055 51.1829 166.055H51.8501V165.913C51.8501 165.786 51.8116 165.683 51.7345 165.606C51.6574 165.529 51.5388 165.491 51.3786 165.491C51.2214 165.491 51.1013 165.528 51.0183 165.602C50.9353 165.676 50.8804 165.772 50.8537 165.891L50.4267 165.753C50.4623 165.634 50.5186 165.528 50.5957 165.433C50.6758 165.335 50.7811 165.256 50.9116 165.197C51.042 165.138 51.1992 165.108 51.3831 165.108C51.6678 165.108 51.8917 165.181 52.0548 165.326C52.2179 165.471 52.2994 165.677 52.2994 165.944V166.847C52.2994 166.936 52.3409 166.981 52.424 166.981H52.6108V167.363H52.2683C52.1645 167.363 52.08 167.337 52.0147 167.283C51.9495 167.23 51.9169 167.157 51.9169 167.065V167.052H51.8501C51.8264 167.096 51.7908 167.148 51.7434 167.208C51.6959 167.267 51.6262 167.319 51.5343 167.363C51.4424 167.405 51.3208 167.426 51.1696 167.426ZM51.2363 167.047C51.4201 167.047 51.5684 166.996 51.6811 166.892C51.7938 166.785 51.8501 166.64 51.8501 166.456V166.411H51.2096C51.088 166.411 50.9901 166.438 50.916 166.491C50.8419 166.542 50.8048 166.617 50.8048 166.718C50.8048 166.819 50.8433 166.899 50.9204 166.958C50.9976 167.018 51.1028 167.047 51.2363 167.047ZM53.0563 167.363V164.249H53.5145V167.363H53.0563ZM55.3282 168.253V165.17H55.7775V165.486H55.8487C55.905 165.388 55.9895 165.301 56.1022 165.224C56.2179 165.147 56.3824 165.108 56.596 165.108C56.7798 165.108 56.9474 165.152 57.0986 165.241C57.2528 165.33 57.3759 165.459 57.4678 165.628C57.5627 165.795 57.6102 165.996 57.6102 166.233V166.3C57.6102 166.537 57.5642 166.741 57.4723 166.91C57.3803 167.076 57.2573 167.203 57.1031 167.292C56.9489 167.381 56.7798 167.426 56.596 167.426C56.4536 167.426 56.3335 167.408 56.2357 167.372C56.1378 167.337 56.0592 167.292 55.9999 167.239C55.9406 167.182 55.8931 167.125 55.8575 167.065H55.7864V168.253H55.3282ZM56.4625 167.025C56.6642 167.025 56.8288 166.961 56.9563 166.834C57.0838 166.706 57.1475 166.524 57.1475 166.287V166.247C57.1475 166.012 57.0823 165.832 56.9518 165.704C56.8243 165.577 56.6612 165.513 56.4625 165.513C56.2668 165.513 56.1037 165.577 55.9732 165.704C55.8457 165.832 55.7819 166.012 55.7819 166.247V166.287C55.7819 166.524 55.8457 166.706 55.9732 166.834C56.1037 166.961 56.2668 167.025 56.4625 167.025ZM58.1779 167.363V165.17H58.6272V165.428H58.6983C58.7339 165.336 58.7903 165.27 58.8674 165.228C58.9474 165.184 59.0453 165.161 59.1609 165.161H59.4234V165.575H59.1432C58.9949 165.575 58.8733 165.617 58.7784 165.7C58.6835 165.78 58.6361 165.904 58.6361 166.073V167.363H58.1779ZM60.8475 167.426C60.628 167.426 60.4323 167.381 60.2603 167.292C60.0913 167.2 59.9578 167.07 59.86 166.901C59.7621 166.732 59.7132 166.531 59.7132 166.3V166.233C59.7132 166.002 59.7621 165.803 59.86 165.637C59.9578 165.468 60.0913 165.338 60.2603 165.246C60.4323 165.154 60.628 165.108 60.8475 165.108C61.0669 165.108 61.2626 165.154 61.4346 165.246C61.6066 165.338 61.7416 165.468 61.8394 165.637C61.9373 165.803 61.9862 166.002 61.9862 166.233V166.3C61.9862 166.531 61.9373 166.732 61.8394 166.901C61.7416 167.07 61.6066 167.2 61.4346 167.292C61.2626 167.381 61.0669 167.426 60.8475 167.426ZM60.8475 167.016C61.0491 167.016 61.2122 166.953 61.3368 166.825C61.4643 166.695 61.5281 166.515 61.5281 166.287V166.247C61.5281 166.018 61.4658 165.84 61.3412 165.713C61.2167 165.582 61.0521 165.517 60.8475 165.517C60.6488 165.517 60.4857 165.582 60.3582 165.713C60.2336 165.84 60.1713 166.018 60.1713 166.247V166.287C60.1713 166.515 60.2336 166.695 60.3582 166.825C60.4857 166.953 60.6488 167.016 60.8475 167.016ZM62.5567 168.253V165.17H63.0059V165.486H63.0771C63.1334 165.388 63.218 165.301 63.3307 165.224C63.4463 165.147 63.6109 165.108 63.8244 165.108C64.0083 165.108 64.1758 165.152 64.3271 165.241C64.4813 165.33 64.6043 165.459 64.6963 165.628C64.7912 165.795 64.8386 165.996 64.8386 166.233V166.3C64.8386 166.537 64.7927 166.741 64.7007 166.91C64.6088 167.076 64.4857 167.203 64.3315 167.292C64.1773 167.381 64.0083 167.426 63.8244 167.426C63.6821 167.426 63.562 167.408 63.4641 167.372C63.3662 167.337 63.2877 167.292 63.2283 167.239C63.169 167.182 63.1216 167.125 63.086 167.065H63.0148V168.253H62.5567ZM63.691 167.025C63.8926 167.025 64.0572 166.961 64.1847 166.834C64.3122 166.706 64.376 166.524 64.376 166.287V166.247C64.376 166.012 64.3108 165.832 64.1803 165.704C64.0528 165.577 63.8897 165.513 63.691 165.513C63.4952 165.513 63.3321 165.577 63.2017 165.704C63.0741 165.832 63.0104 166.012 63.0104 166.247V166.287C63.0104 166.524 63.0741 166.706 63.2017 166.834C63.3321 166.961 63.4952 167.025 63.691 167.025ZM66.4116 167.426C66.1892 167.426 65.995 167.38 65.8289 167.288C65.6628 167.193 65.5324 167.061 65.4375 166.892C65.3455 166.72 65.2996 166.521 65.2996 166.296V166.242C65.2996 166.014 65.3455 165.815 65.4375 165.646C65.5294 165.474 65.6569 165.342 65.82 165.25C65.9861 165.155 66.1774 165.108 66.3938 165.108C66.6044 165.108 66.7883 165.155 66.9454 165.25C67.1056 165.342 67.2301 165.471 67.3191 165.637C67.4081 165.803 67.4525 165.998 67.4525 166.22V166.394H65.7666C65.7726 166.586 65.8363 166.741 65.9579 166.856C66.0825 166.969 66.2367 167.025 66.4205 167.025C66.5925 167.025 66.7215 166.987 66.8075 166.91C66.8965 166.832 66.9647 166.743 67.0122 166.643L67.3903 166.838C67.3487 166.921 67.2879 167.009 67.2079 167.101C67.1308 167.193 67.0285 167.27 66.9009 167.332C66.7734 167.394 66.6103 167.426 66.4116 167.426ZM65.7711 166.042H66.9855C66.9736 165.876 66.9143 165.747 66.8075 165.655C66.7008 165.56 66.5614 165.513 66.3894 165.513C66.2174 165.513 66.0765 165.56 65.9668 165.655C65.8601 165.747 65.7948 165.876 65.7711 166.042ZM68.0041 167.363V165.17H68.4533V165.428H68.5245C68.5601 165.336 68.6164 165.27 68.6935 165.228C68.7736 165.184 68.8715 165.161 68.9871 165.161H69.2496V165.575H68.9693C68.8211 165.575 68.6995 165.617 68.6046 165.7C68.5097 165.78 68.4622 165.904 68.4622 166.073V167.363H68.0041ZM70.5472 167.363C70.4138 167.363 70.307 167.323 70.2269 167.243C70.1498 167.163 70.1113 167.056 70.1113 166.923V165.557H69.5063V165.17H70.1113V164.445H70.5695V165.17H71.2234V165.557H70.5695V166.843C70.5695 166.932 70.611 166.976 70.694 166.976H71.1522V167.363H70.5472ZM72.0152 168.253V167.853H73.2385C73.3215 167.853 73.363 167.808 73.363 167.719V167.043H73.2918C73.2651 167.102 73.2236 167.16 73.1673 167.216C73.1139 167.27 73.0413 167.314 72.9493 167.35C72.8574 167.386 72.7417 167.403 72.6024 167.403C72.4363 167.403 72.288 167.366 72.1575 167.292C72.027 167.218 71.9247 167.113 71.8506 166.976C71.7765 166.84 71.7394 166.678 71.7394 166.491V165.17H72.1976V166.456C72.1976 166.646 72.245 166.786 72.3399 166.878C72.4348 166.967 72.5668 167.012 72.7358 167.012C72.9226 167.012 73.0724 166.95 73.1851 166.825C73.3007 166.7 73.3586 166.52 73.3586 166.282V165.17H73.8167V167.813C73.8167 167.946 73.7767 168.053 73.6966 168.133C73.6195 168.213 73.5128 168.253 73.3764 168.253H72.0152ZM74.4985 167.968V167.706H74.6497C74.7713 167.706 74.8321 167.645 74.8321 167.523V167.381H74.7654C74.6616 167.381 74.5756 167.35 74.5074 167.288C74.4392 167.225 74.4051 167.147 74.4051 167.052C74.4051 166.948 74.4392 166.865 74.5074 166.803C74.5756 166.738 74.6616 166.705 74.7654 166.705C74.8692 166.705 74.9537 166.739 75.0189 166.807C75.0871 166.872 75.1212 166.958 75.1212 167.065V167.528C75.1212 167.821 74.9744 167.968 74.6808 167.968H74.4985ZM76.7051 167.363V165.17H77.1633V167.363H76.7051ZM76.9364 164.872C76.8475 164.872 76.7718 164.844 76.7096 164.788C76.6503 164.728 76.6206 164.653 76.6206 164.561C76.6206 164.469 76.6503 164.395 76.7096 164.338C76.7718 164.279 76.8475 164.249 76.9364 164.249C77.0284 164.249 77.104 164.279 77.1633 164.338C77.2226 164.395 77.2523 164.469 77.2523 164.561C77.2523 164.653 77.2226 164.728 77.1633 164.788C77.104 164.844 77.0284 164.872 76.9364 164.872ZM78.2392 167.363V165.557H77.6253V165.17H78.2392V164.69C78.2392 164.556 78.2792 164.45 78.3593 164.37C78.4393 164.29 78.5461 164.249 78.6795 164.249H79.2445V164.636H78.8263C78.7403 164.636 78.6973 164.681 78.6973 164.77V165.17H79.329V165.557H78.6973V167.363H78.2392ZM81.3277 167.363V165.557H80.7139V165.17H81.3277V164.69C81.3277 164.556 81.3678 164.45 81.4479 164.37C81.5279 164.29 81.6347 164.249 81.7681 164.249H82.3331V164.636H81.9149C81.8289 164.636 81.7859 164.681 81.7859 164.77V165.17H82.4176V165.557H81.7859V167.363H81.3277ZM83.823 167.426C83.6035 167.426 83.4078 167.381 83.2358 167.292C83.0668 167.2 82.9333 167.07 82.8355 166.901C82.7376 166.732 82.6887 166.531 82.6887 166.3V166.233C82.6887 166.002 82.7376 165.803 82.8355 165.637C82.9333 165.468 83.0668 165.338 83.2358 165.246C83.4078 165.154 83.6035 165.108 83.823 165.108C84.0424 165.108 84.2382 165.154 84.4102 165.246C84.5822 165.338 84.7171 165.468 84.815 165.637C84.9128 165.803 84.9617 166.002 84.9617 166.233V166.3C84.9617 166.531 84.9128 166.732 84.815 166.901C84.7171 167.07 84.5822 167.2 84.4102 167.292C84.2382 167.381 84.0424 167.426 83.823 167.426ZM83.823 167.016C84.0246 167.016 84.1877 166.953 84.3123 166.825C84.4398 166.695 84.5036 166.515 84.5036 166.287V166.247C84.5036 166.018 84.4413 165.84 84.3167 165.713C84.1922 165.582 84.0276 165.517 83.823 165.517C83.6243 165.517 83.4612 165.582 83.3337 165.713C83.2091 165.84 83.1468 166.018 83.1468 166.247V166.287C83.1468 166.515 83.2091 166.695 83.3337 166.825C83.4612 166.953 83.6243 167.016 83.823 167.016ZM86.3729 167.403C86.2068 167.403 86.0585 167.366 85.9281 167.292C85.7976 167.218 85.6953 167.113 85.6211 166.976C85.547 166.84 85.5099 166.677 85.5099 166.487V165.17H85.9681V166.456C85.9681 166.646 86.0155 166.786 86.1104 166.878C86.2053 166.967 86.3373 167.012 86.5063 167.012C86.6932 167.012 86.8429 166.95 86.9556 166.825C87.0713 166.698 87.1291 166.515 87.1291 166.278V165.17H87.5873V167.363H87.138V167.034H87.0668C87.0253 167.123 86.9512 167.208 86.8444 167.288C86.7377 167.365 86.5805 167.403 86.3729 167.403ZM88.2646 167.363V165.17H88.7138V165.499H88.785C88.8265 165.41 88.9007 165.327 89.0074 165.25C89.1142 165.173 89.2728 165.135 89.4834 165.135C89.6495 165.135 89.7962 165.172 89.9238 165.246C90.0542 165.32 90.1566 165.425 90.2307 165.562C90.3048 165.695 90.3419 165.857 90.3419 166.047V167.363H89.8837V166.082C89.8837 165.892 89.8363 165.753 89.7414 165.664C89.6465 165.572 89.516 165.526 89.3499 165.526C89.1601 165.526 89.0074 165.588 88.8918 165.713C88.7791 165.838 88.7227 166.018 88.7227 166.256V167.363H88.2646ZM91.9087 167.426C91.7278 167.426 91.5603 167.381 91.4061 167.292C91.2519 167.203 91.1273 167.076 91.0324 166.91C90.9405 166.741 90.8945 166.537 90.8945 166.3V166.233C90.8945 165.999 90.9405 165.797 91.0324 165.628C91.1244 165.459 91.2474 165.33 91.4016 165.241C91.5558 165.152 91.7249 165.108 91.9087 165.108C92.0511 165.108 92.1697 165.126 92.2646 165.161C92.3625 165.197 92.4425 165.243 92.5048 165.299C92.5671 165.353 92.6145 165.409 92.6472 165.468H92.7183V164.249H93.1765V167.363H92.7272V167.052H92.656C92.5997 167.147 92.5137 167.233 92.398 167.31C92.2854 167.387 92.1223 167.426 91.9087 167.426ZM92.0377 167.025C92.2364 167.025 92.3995 166.961 92.527 166.834C92.6575 166.706 92.7228 166.524 92.7228 166.287V166.247C92.7228 166.012 92.659 165.832 92.5315 165.704C92.404 165.577 92.2394 165.513 92.0377 165.513C91.842 165.513 91.6789 165.577 91.5484 165.704C91.4209 165.832 91.3572 166.012 91.3572 166.247V166.287C91.3572 166.524 91.4209 166.706 91.5484 166.834C91.6789 166.961 91.842 167.025 92.0377 167.025ZM93.8554 167.968V167.706H94.0067C94.1282 167.706 94.189 167.645 94.189 167.523V167.381H94.1223C94.0185 167.381 93.9325 167.35 93.8643 167.288C93.7961 167.225 93.762 167.147 93.762 167.052C93.762 166.948 93.7961 166.865 93.8643 166.803C93.9325 166.738 94.0185 166.705 94.1223 166.705C94.2261 166.705 94.3106 166.739 94.3759 166.807C94.4441 166.872 94.4782 166.958 94.4782 167.065V167.528C94.4782 167.821 94.3314 167.968 94.0378 167.968H93.8554ZM96.9606 167.426C96.6819 167.426 96.4506 167.363 96.2667 167.239C96.0828 167.114 95.9701 166.926 95.9286 166.674L96.3557 166.571C96.3794 166.693 96.4194 166.789 96.4758 166.861C96.5321 166.932 96.6018 166.982 96.6848 167.012C96.7708 167.042 96.8628 167.056 96.9606 167.056C97.1059 167.056 97.2171 167.028 97.2942 166.972C97.3743 166.915 97.4143 166.843 97.4143 166.754C97.4143 166.665 97.3773 166.6 97.3031 166.558C97.229 166.517 97.1193 166.483 96.974 166.456L96.8227 166.429C96.6745 166.402 96.5395 166.364 96.4179 166.313C96.2963 166.263 96.2 166.193 96.1288 166.104C96.0576 166.015 96.022 165.901 96.022 165.762C96.022 165.554 96.0991 165.394 96.2533 165.281C96.4076 165.166 96.6122 165.108 96.8672 165.108C97.1133 165.108 97.315 165.164 97.4722 165.277C97.6323 165.387 97.7361 165.537 97.7836 165.726L97.3565 165.846C97.3298 165.713 97.2735 165.62 97.1875 165.566C97.1015 165.51 96.9947 165.482 96.8672 165.482C96.7427 165.482 96.6448 165.505 96.5736 165.553C96.5025 165.597 96.4669 165.661 96.4669 165.744C96.4669 165.833 96.501 165.898 96.5692 165.94C96.6403 165.981 96.7352 166.012 96.8539 166.033L97.0096 166.06C97.1667 166.087 97.3106 166.124 97.441 166.171C97.5715 166.219 97.6738 166.287 97.748 166.376C97.8251 166.465 97.8636 166.583 97.8636 166.732C97.8636 166.951 97.7821 167.122 97.619 167.243C97.4559 167.365 97.2364 167.426 96.9606 167.426ZM99.4178 167.426C99.2073 167.426 99.016 167.381 98.844 167.292C98.6749 167.203 98.54 167.074 98.4392 166.905C98.3413 166.736 98.2924 166.533 98.2924 166.296V166.238C98.2924 166.001 98.3413 165.799 98.4392 165.633C98.54 165.464 98.6749 165.335 98.844 165.246C99.016 165.154 99.2073 165.108 99.4178 165.108C99.6284 165.108 99.8078 165.147 99.956 165.224C100.104 165.301 100.223 165.403 100.312 165.531C100.404 165.658 100.463 165.799 100.49 165.953L100.045 166.047C100.03 165.949 99.999 165.86 99.9516 165.78C99.9041 165.7 99.8374 165.636 99.7514 165.588C99.6654 165.541 99.5572 165.517 99.4267 165.517C99.2992 165.517 99.1835 165.547 99.0797 165.606C98.9789 165.663 98.8988 165.746 98.8395 165.855C98.7802 165.962 98.7506 166.093 98.7506 166.247V166.287C98.7506 166.441 98.7802 166.573 98.8395 166.683C98.8988 166.792 98.9789 166.875 99.0797 166.932C99.1835 166.988 99.2992 167.016 99.4267 167.016C99.6195 167.016 99.7663 166.967 99.8671 166.87C99.9679 166.769 100.032 166.641 100.058 166.487L100.503 166.589C100.468 166.741 100.404 166.88 100.312 167.007C100.223 167.135 100.104 167.237 99.956 167.314C99.8078 167.388 99.6284 167.426 99.4178 167.426ZM101.712 167.426C101.555 167.426 101.414 167.399 101.29 167.345C101.168 167.292 101.07 167.214 100.996 167.11C100.925 167.006 100.889 166.88 100.889 166.732C100.889 166.58 100.925 166.456 100.996 166.358C101.07 166.257 101.17 166.182 101.294 166.131C101.422 166.081 101.565 166.055 101.726 166.055H102.393V165.913C102.393 165.786 102.354 165.683 102.277 165.606C102.2 165.529 102.081 165.491 101.921 165.491C101.764 165.491 101.644 165.528 101.561 165.602C101.478 165.676 101.423 165.772 101.396 165.891L100.969 165.753C101.005 165.634 101.061 165.528 101.138 165.433C101.218 165.335 101.324 165.256 101.454 165.197C101.585 165.138 101.742 165.108 101.926 165.108C102.21 165.108 102.434 165.181 102.597 165.326C102.761 165.471 102.842 165.677 102.842 165.944V166.847C102.842 166.936 102.884 166.981 102.967 166.981H103.153V167.363H102.811C102.707 167.363 102.623 167.337 102.557 167.283C102.492 167.23 102.46 167.157 102.46 167.065V167.052H102.393C102.369 167.096 102.333 167.148 102.286 167.208C102.239 167.267 102.169 167.319 102.077 167.363C101.985 167.405 101.863 167.426 101.712 167.426ZM101.779 167.047C101.963 167.047 102.111 166.996 102.224 166.892C102.336 166.785 102.393 166.64 102.393 166.456V166.411H101.752C101.631 166.411 101.533 166.438 101.459 166.491C101.385 166.542 101.347 166.617 101.347 166.718C101.347 166.819 101.386 166.899 101.463 166.958C101.54 167.018 101.645 167.047 101.779 167.047ZM103.599 167.363V165.17H104.048V165.499H104.119C104.161 165.41 104.235 165.327 104.342 165.25C104.449 165.173 104.607 165.135 104.818 165.135C104.984 165.135 105.131 165.172 105.258 165.246C105.389 165.32 105.491 165.425 105.565 165.562C105.639 165.695 105.676 165.857 105.676 166.047V167.363H105.218V166.082C105.218 165.892 105.171 165.753 105.076 165.664C104.981 165.572 104.85 165.526 104.684 165.526C104.495 165.526 104.342 165.588 104.226 165.713C104.113 165.838 104.057 166.018 104.057 166.256V167.363H103.599ZM41.1947 173.363C41.0612 173.363 40.9545 173.323 40.8744 173.243C40.7973 173.163 40.7587 173.056 40.7587 172.923V171.557H40.1538V171.17H40.7587V170.445H41.2169V171.17H41.8708V171.557H41.2169V172.843C41.2169 172.932 41.2584 172.976 41.3415 172.976H41.7996V173.363H41.1947ZM42.4091 173.363V170.249H42.8673V171.482H42.9384C42.9681 171.425 43.0096 171.37 43.063 171.317C43.1193 171.264 43.192 171.221 43.281 171.188C43.3729 171.152 43.4885 171.135 43.6279 171.135C43.794 171.135 43.9408 171.172 44.0683 171.246C44.1988 171.32 44.3011 171.425 44.3752 171.562C44.4494 171.695 44.4864 171.857 44.4864 172.047V173.363H44.0283V172.082C44.0283 171.892 43.9808 171.753 43.8859 171.664C43.791 171.572 43.6605 171.526 43.4945 171.526C43.3047 171.526 43.152 171.588 43.0363 171.713C42.9236 171.838 42.8673 172.018 42.8673 172.256V173.363H42.4091ZM46.1511 173.426C45.9287 173.426 45.7345 173.38 45.5684 173.288C45.4023 173.193 45.2719 173.061 45.177 172.892C45.085 172.72 45.0391 172.521 45.0391 172.296V172.242C45.0391 172.014 45.085 171.815 45.177 171.646C45.2689 171.474 45.3964 171.342 45.5595 171.25C45.7256 171.155 45.9169 171.108 46.1333 171.108C46.3439 171.108 46.5278 171.155 46.6849 171.25C46.8451 171.342 46.9696 171.471 47.0586 171.637C47.1475 171.803 47.192 171.998 47.192 172.22V172.394H45.5061C45.5121 172.586 45.5758 172.741 45.6974 172.856C45.822 172.969 45.9762 173.025 46.16 173.025C46.332 173.025 46.461 172.987 46.547 172.91C46.636 172.832 46.7042 172.743 46.7516 172.643L47.1298 172.838C47.0882 172.921 47.0274 173.009 46.9474 173.101C46.8703 173.193 46.768 173.27 46.6404 173.332C46.5129 173.394 46.3498 173.426 46.1511 173.426ZM45.5106 172.042H46.725C46.7131 171.876 46.6538 171.747 46.547 171.655C46.4403 171.56 46.3009 171.513 46.1289 171.513C45.9569 171.513 45.816 171.56 45.7063 171.655C45.5995 171.747 45.5343 171.876 45.5106 172.042ZM50.0339 173.426C49.6513 173.426 49.3474 173.319 49.122 173.105C48.8966 172.889 48.7839 172.577 48.7839 172.171V171.442C48.7839 171.035 48.8966 170.725 49.122 170.512C49.3474 170.295 49.6513 170.187 50.0339 170.187C50.4164 170.187 50.7204 170.295 50.9458 170.512C51.1741 170.725 51.2883 171.035 51.2883 171.442V172.171C51.2883 172.577 51.1741 172.889 50.9458 173.105C50.7204 173.319 50.4164 173.426 50.0339 173.426ZM50.0339 172.994C50.28 172.994 50.4698 172.923 50.6033 172.781C50.7367 172.635 50.8034 172.438 50.8034 172.189V171.424C50.8034 171.175 50.7367 170.979 50.6033 170.837C50.4698 170.691 50.28 170.619 50.0339 170.619C49.7937 170.619 49.6054 170.691 49.469 170.837C49.3325 170.979 49.2643 171.175 49.2643 171.424V172.189C49.2643 172.438 49.3325 172.635 49.469 172.781C49.6054 172.923 49.7937 172.994 50.0339 172.994ZM50.2252 174.124C50.0976 174.124 49.9939 174.084 49.9138 174.004C49.8367 173.927 49.7981 173.821 49.7981 173.688V173.363H50.2696V173.608C50.2696 173.697 50.3112 173.741 50.3942 173.741H50.67V174.124H50.2252ZM51.857 173.363V170.249H53.1648C53.3576 170.249 53.5266 170.284 53.6719 170.352C53.8202 170.417 53.9344 170.512 54.0144 170.636C54.0975 170.761 54.139 170.909 54.139 171.081V171.13C54.139 171.326 54.0915 171.483 53.9966 171.602C53.9047 171.717 53.792 171.799 53.6586 171.846V171.918C53.7713 171.924 53.8617 171.962 53.9299 172.033C53.9981 172.101 54.0322 172.201 54.0322 172.331V173.363H53.5474V172.398C53.5474 172.318 53.5266 172.254 53.4851 172.207C53.4436 172.159 53.3768 172.136 53.2849 172.136H52.3374V173.363H51.857ZM52.3374 171.7H53.1114C53.2834 171.7 53.4169 171.657 53.5118 171.571C53.6067 171.482 53.6541 171.362 53.6541 171.21V171.175C53.6541 171.023 53.6067 170.905 53.5118 170.819C53.4198 170.73 53.2864 170.685 53.1114 170.685H52.3374V171.7ZM56.6377 173.363C56.5042 173.363 56.3975 173.323 56.3174 173.243C56.2403 173.163 56.2017 173.056 56.2017 172.923V171.557H55.5968V171.17H56.2017V170.445H56.6599V171.17H57.3138V171.557H56.6599V172.843C56.6599 172.932 56.7014 172.976 56.7845 172.976H57.2426V173.363H56.6377ZM58.8014 173.426C58.582 173.426 58.3863 173.381 58.2143 173.292C58.0452 173.2 57.9118 173.07 57.8139 172.901C57.7161 172.732 57.6671 172.531 57.6671 172.3V172.233C57.6671 172.002 57.7161 171.803 57.8139 171.637C57.9118 171.468 58.0452 171.338 58.2143 171.246C58.3863 171.154 58.582 171.108 58.8014 171.108C59.0209 171.108 59.2166 171.154 59.3886 171.246C59.5606 171.338 59.6955 171.468 59.7934 171.637C59.8913 171.803 59.9402 172.002 59.9402 172.233V172.3C59.9402 172.531 59.8913 172.732 59.7934 172.901C59.6955 173.07 59.5606 173.2 59.3886 173.292C59.2166 173.381 59.0209 173.426 58.8014 173.426ZM58.8014 173.016C59.0031 173.016 59.1662 172.953 59.2907 172.825C59.4183 172.695 59.482 172.515 59.482 172.287V172.247C59.482 172.018 59.4197 171.84 59.2952 171.713C59.1706 171.582 59.0061 171.517 58.8014 171.517C58.6027 171.517 58.4396 171.582 58.3121 171.713C58.1876 171.84 58.1253 172.018 58.1253 172.247V172.287C58.1253 172.515 58.1876 172.695 58.3121 172.825C58.4396 172.953 58.6027 173.016 58.8014 173.016ZM62.6631 173.426C62.4525 173.426 62.2612 173.381 62.0892 173.292C61.9202 173.203 61.7853 173.074 61.6844 172.905C61.5866 172.736 61.5376 172.533 61.5376 172.296V172.238C61.5376 172.001 61.5866 171.799 61.6844 171.633C61.7853 171.464 61.9202 171.335 62.0892 171.246C62.2612 171.154 62.4525 171.108 62.6631 171.108C62.8736 171.108 63.053 171.147 63.2013 171.224C63.3496 171.301 63.4682 171.403 63.5572 171.531C63.6491 171.658 63.7084 171.799 63.7351 171.953L63.2903 172.047C63.2754 171.949 63.2443 171.86 63.1969 171.78C63.1494 171.7 63.0827 171.636 62.9967 171.588C62.9107 171.541 62.8024 171.517 62.672 171.517C62.5444 171.517 62.4288 171.547 62.325 171.606C62.2242 171.663 62.1441 171.746 62.0848 171.855C62.0255 171.962 61.9958 172.093 61.9958 172.247V172.287C61.9958 172.441 62.0255 172.573 62.0848 172.683C62.1441 172.792 62.2242 172.875 62.325 172.932C62.4288 172.988 62.5444 173.016 62.672 173.016C62.8647 173.016 63.0115 172.967 63.1123 172.87C63.2132 172.769 63.2769 172.641 63.3036 172.487L63.7484 172.589C63.7129 172.741 63.6491 172.88 63.5572 173.007C63.4682 173.135 63.3496 173.237 63.2013 173.314C63.053 173.388 62.8736 173.426 62.6631 173.426ZM65.3044 173.426C65.085 173.426 64.8893 173.381 64.7173 173.292C64.5482 173.2 64.4148 173.07 64.3169 172.901C64.2191 172.732 64.1701 172.531 64.1701 172.3V172.233C64.1701 172.002 64.2191 171.803 64.3169 171.637C64.4148 171.468 64.5482 171.338 64.7173 171.246C64.8893 171.154 65.085 171.108 65.3044 171.108C65.5239 171.108 65.7196 171.154 65.8916 171.246C66.0636 171.338 66.1985 171.468 66.2964 171.637C66.3943 171.803 66.4432 172.002 66.4432 172.233V172.3C66.4432 172.531 66.3943 172.732 66.2964 172.901C66.1985 173.07 66.0636 173.2 65.8916 173.292C65.7196 173.381 65.5239 173.426 65.3044 173.426ZM65.3044 173.016C65.5061 173.016 65.6692 172.953 65.7937 172.825C65.9213 172.695 65.985 172.515 65.985 172.287V172.247C65.985 172.018 65.9227 171.84 65.7982 171.713C65.6736 171.582 65.5091 171.517 65.3044 171.517C65.1057 171.517 64.9426 171.582 64.8151 171.713C64.6906 171.84 64.6283 172.018 64.6283 172.247V172.287C64.6283 172.515 64.6906 172.695 64.8151 172.825C64.9426 172.953 65.1057 173.016 65.3044 173.016ZM67.0136 173.363V171.17H67.4629V171.499H67.5341C67.5756 171.41 67.6497 171.327 67.7565 171.25C67.8632 171.173 68.0219 171.135 68.2324 171.135C68.3985 171.135 68.5453 171.172 68.6728 171.246C68.8033 171.32 68.9056 171.425 68.9798 171.562C69.0539 171.695 69.091 171.857 69.091 172.047V173.363H68.6328V172.082C68.6328 171.892 68.5853 171.753 68.4904 171.664C68.3955 171.572 68.2651 171.526 68.099 171.526C67.9092 171.526 67.7565 171.588 67.6408 171.713C67.5281 171.838 67.4718 172.018 67.4718 172.256V173.363H67.0136ZM70.5125 173.363C70.379 173.363 70.2723 173.323 70.1922 173.243C70.1151 173.163 70.0765 173.056 70.0765 172.923V171.557H69.4716V171.17H70.0765V170.445H70.5347V171.17H71.1886V171.557H70.5347V172.843C70.5347 172.932 70.5762 172.976 70.6593 172.976H71.1174V173.363H70.5125ZM72.4031 173.426C72.2459 173.426 72.1051 173.399 71.9805 173.345C71.8589 173.292 71.7611 173.214 71.6869 173.11C71.6158 173.006 71.5802 172.88 71.5802 172.732C71.5802 172.58 71.6158 172.456 71.6869 172.358C71.7611 172.257 71.8604 172.182 71.985 172.131C72.1125 172.081 72.2563 172.055 72.4165 172.055H73.0837V171.913C73.0837 171.786 73.0452 171.683 72.968 171.606C72.8909 171.529 72.7723 171.491 72.6122 171.491C72.455 171.491 72.3349 171.528 72.2519 171.602C72.1688 171.676 72.114 171.772 72.0873 171.891L71.6603 171.753C71.6958 171.634 71.7522 171.528 71.8293 171.433C71.9094 171.335 72.0146 171.256 72.1451 171.197C72.2756 171.138 72.4328 171.108 72.6166 171.108C72.9013 171.108 73.1252 171.181 73.2883 171.326C73.4514 171.471 73.533 171.677 73.533 171.944V172.847C73.533 172.936 73.5745 172.981 73.6575 172.981H73.8444V173.363H73.5018C73.398 173.363 73.3135 173.337 73.2483 173.283C73.183 173.23 73.1504 173.157 73.1504 173.065V173.052H73.0837C73.06 173.096 73.0244 173.148 72.9769 173.208C72.9295 173.267 72.8598 173.319 72.7679 173.363C72.6759 173.405 72.5544 173.426 72.4031 173.426ZM72.4698 173.047C72.6537 173.047 72.802 172.996 72.9147 172.892C73.0274 172.785 73.0837 172.64 73.0837 172.456V172.411H72.4432C72.3216 172.411 72.2237 172.438 72.1496 172.491C72.0754 172.542 72.0384 172.617 72.0384 172.718C72.0384 172.819 72.0769 172.899 72.154 172.958C72.2311 173.018 72.3364 173.047 72.4698 173.047ZM75.2564 173.426C75.0458 173.426 74.8545 173.381 74.6825 173.292C74.5135 173.203 74.3786 173.074 74.2778 172.905C74.1799 172.736 74.131 172.533 74.131 172.296V172.238C74.131 172.001 74.1799 171.799 74.2778 171.633C74.3786 171.464 74.5135 171.335 74.6825 171.246C74.8545 171.154 75.0458 171.108 75.2564 171.108C75.4669 171.108 75.6463 171.147 75.7946 171.224C75.9429 171.301 76.0615 171.403 76.1505 171.531C76.2424 171.658 76.3017 171.799 76.3284 171.953L75.8836 172.047C75.8688 171.949 75.8376 171.86 75.7902 171.78C75.7427 171.7 75.676 171.636 75.59 171.588C75.504 171.541 75.3958 171.517 75.2653 171.517C75.1378 171.517 75.0221 171.547 74.9183 171.606C74.8175 171.663 74.7374 171.746 74.6781 171.855C74.6188 171.962 74.5891 172.093 74.5891 172.247V172.287C74.5891 172.441 74.6188 172.573 74.6781 172.683C74.7374 172.792 74.8175 172.875 74.9183 172.932C75.0221 172.988 75.1378 173.016 75.2653 173.016C75.458 173.016 75.6048 172.967 75.7057 172.87C75.8065 172.769 75.8702 172.641 75.8969 172.487L76.3418 172.589C76.3062 172.741 76.2424 172.88 76.1505 173.007C76.0615 173.135 75.9429 173.237 75.7946 173.314C75.6463 173.388 75.4669 173.426 75.2564 173.426ZM77.6106 173.363C77.4771 173.363 77.3704 173.323 77.2903 173.243C77.2132 173.163 77.1747 173.056 77.1747 172.923V171.557H76.5697V171.17H77.1747V170.445H77.6328V171.17H78.2867V171.557H77.6328V172.843C77.6328 172.932 77.6743 172.976 77.7574 172.976H78.2156V173.363H77.6106ZM80.7817 173.363C80.6483 173.363 80.5415 173.323 80.4614 173.243C80.3843 173.163 80.3458 173.056 80.3458 172.923V171.557H79.7408V171.17H80.3458V170.445H80.804V171.17H81.4579V171.557H80.804V172.843C80.804 172.932 80.8455 172.976 80.9285 172.976H81.3867V173.363H80.7817ZM81.9961 173.363V170.249H82.4543V171.482H82.5255C82.5551 171.425 82.5967 171.37 82.65 171.317C82.7064 171.264 82.779 171.221 82.868 171.188C82.9599 171.152 83.0756 171.135 83.215 171.135C83.381 171.135 83.5278 171.172 83.6553 171.246C83.7858 171.32 83.8881 171.425 83.9623 171.562C84.0364 171.695 84.0735 171.857 84.0735 172.047V173.363H83.6153V172.082C83.6153 171.892 83.5679 171.753 83.473 171.664C83.3781 171.572 83.2476 171.526 83.0815 171.526C82.8917 171.526 82.739 171.588 82.6233 171.713C82.5107 171.838 82.4543 172.018 82.4543 172.256V173.363H81.9961ZM85.7382 173.426C85.5158 173.426 85.3215 173.38 85.1555 173.288C84.9894 173.193 84.8589 173.061 84.764 172.892C84.6721 172.72 84.6261 172.521 84.6261 172.296V172.242C84.6261 172.014 84.6721 171.815 84.764 171.646C84.8559 171.474 84.9835 171.342 85.1466 171.25C85.3126 171.155 85.5039 171.108 85.7204 171.108C85.9309 171.108 86.1148 171.155 86.272 171.25C86.4321 171.342 86.5567 171.471 86.6456 171.637C86.7346 171.803 86.7791 171.998 86.7791 172.22V172.394H85.0932C85.0991 172.586 85.1629 172.741 85.2845 172.856C85.409 172.969 85.5632 173.025 85.7471 173.025C85.9191 173.025 86.0481 172.987 86.1341 172.91C86.223 172.832 86.2912 172.743 86.3387 172.643L86.7168 172.838C86.6753 172.921 86.6145 173.009 86.5344 173.101C86.4573 173.193 86.355 173.27 86.2275 173.332C86.1 173.394 85.9369 173.426 85.7382 173.426ZM85.0976 172.042H86.312C86.3001 171.876 86.2408 171.747 86.1341 171.655C86.0273 171.56 85.8879 171.513 85.7159 171.513C85.5439 171.513 85.4031 171.56 85.2933 171.655C85.1866 171.747 85.1213 171.876 85.0976 172.042ZM89.4919 173.426C89.2725 173.426 89.0768 173.381 88.9048 173.292C88.7357 173.2 88.6023 173.07 88.5044 172.901C88.4066 172.732 88.3576 172.531 88.3576 172.3V172.233C88.3576 172.002 88.4066 171.803 88.5044 171.637C88.6023 171.468 88.7357 171.338 88.9048 171.246C89.0768 171.154 89.2725 171.108 89.4919 171.108C89.7114 171.108 89.9071 171.154 90.0791 171.246C90.2511 171.338 90.386 171.468 90.4839 171.637C90.5818 171.803 90.6307 172.002 90.6307 172.233V172.3C90.6307 172.531 90.5818 172.732 90.4839 172.901C90.386 173.07 90.2511 173.2 90.0791 173.292C89.9071 173.381 89.7114 173.426 89.4919 173.426ZM89.4919 173.016C89.6936 173.016 89.8567 172.953 89.9812 172.825C90.1088 172.695 90.1725 172.515 90.1725 172.287V172.247C90.1725 172.018 90.1102 171.84 89.9857 171.713C89.8611 171.582 89.6966 171.517 89.4919 171.517C89.2932 171.517 89.1301 171.582 89.0026 171.713C88.8781 171.84 88.8158 172.018 88.8158 172.247V172.287C88.8158 172.515 88.8781 172.695 89.0026 172.825C89.1301 172.953 89.2932 173.016 89.4919 173.016ZM91.4153 173.363L91.0416 171.17H91.4998L91.7756 173.056H91.8467L92.2293 171.17H92.9722L93.3503 173.056H93.4214L93.6972 171.17H94.1554L93.7817 173.363H93.0122L92.6341 171.482H92.5629L92.1848 173.363H91.4153ZM94.698 173.363V171.17H95.1473V171.499H95.2185C95.26 171.41 95.3342 171.327 95.4409 171.25C95.5477 171.173 95.7063 171.135 95.9169 171.135C96.0829 171.135 96.2297 171.172 96.3573 171.246C96.4877 171.32 96.59 171.425 96.6642 171.562C96.7383 171.695 96.7754 171.857 96.7754 172.047V173.363H96.3172V172.082C96.3172 171.892 96.2698 171.753 96.1749 171.664C96.08 171.572 95.9495 171.526 95.7834 171.526C95.5936 171.526 95.4409 171.588 95.3253 171.713C95.2126 171.838 95.1562 172.018 95.1562 172.256V173.363H94.698ZM98.4401 173.426C98.2177 173.426 98.0234 173.38 97.8574 173.288C97.6913 173.193 97.5608 173.061 97.4659 172.892C97.374 172.72 97.328 172.521 97.328 172.296V172.242C97.328 172.014 97.374 171.815 97.4659 171.646C97.5578 171.474 97.6854 171.342 97.8485 171.25C98.0145 171.155 98.2058 171.108 98.4223 171.108C98.6328 171.108 98.8167 171.155 98.9739 171.25C99.134 171.342 99.2586 171.471 99.3475 171.637C99.4365 171.803 99.481 171.998 99.481 172.22V172.394H97.7951C97.801 172.586 97.8648 172.741 97.9864 172.856C98.1109 172.969 98.2651 173.025 98.449 173.025C98.621 173.025 98.75 172.987 98.836 172.91C98.925 172.832 98.9932 172.743 99.0406 172.643L99.4187 172.838C99.3772 172.921 99.3164 173.009 99.2363 173.101C99.1592 173.193 99.0569 173.27 98.9294 173.332C98.8019 173.394 98.6388 173.426 98.4401 173.426ZM97.7995 172.042H99.0139C99.0021 171.876 98.9427 171.747 98.836 171.655C98.7292 171.56 98.5898 171.513 98.4178 171.513C98.2458 171.513 98.105 171.56 97.9953 171.655C97.8885 171.747 97.8233 171.876 97.7995 172.042ZM100.033 173.363V171.17H100.482V171.428H100.553C100.589 171.336 100.645 171.27 100.722 171.228C100.802 171.184 100.9 171.161 101.016 171.161H101.278V171.575H100.998C100.85 171.575 100.728 171.617 100.633 171.7C100.538 171.78 100.491 171.904 100.491 172.073V173.363H100.033Z" fill="#282828"/>
<path d="M111.565 -2.29829L141.451 -1.95561L141.128 26.1978L111.565 -2.29829Z" fill="#0C87C9"/>
<rect x="63.6807" y="82.6602" width="14.0862" height="14.0862" rx="3.55862" fill="#E3E6EC"/>
<g filter="url(#filter2_d_6059_1297)">
<path d="M73.876 87.557H67.2165C67.1891 87.557 67.168 87.5359 67.168 87.5085V87.4134C67.168 86.0574 68.2684 84.957 69.6244 84.957H71.4725C72.8284 84.957 73.9288 86.0574 73.9288 87.4134V87.5085C73.9246 87.5359 73.9035 87.557 73.876 87.557Z" fill="#0C87C9"/>
<path d="M71.3238 91.8477H67.165C67.165 93.2839 68.3288 94.4477 69.765 94.4477H73.9238C73.9238 93.0114 72.76 91.8477 71.3238 91.8477Z" fill="#37C8FC"/>
<path d="M70.1537 91.8485H67.165V87.4025C67.165 86.055 68.2591 84.9609 69.6066 84.9609H70.1537V91.8485Z" fill="#0C87C9"/>
</g>
</g>
</g>
<defs>
<filter id="filter0_d_6059_1297" x="0" y="0" width="141.448" height="223" filterUnits="userSpaceOnUse" color-interpolation-filters="sRGB">
<feFlood flood-opacity="0" result="BackgroundImageFix"/>
<feColorMatrix in="SourceAlpha" type="matrix" values="0 0 0 0 0 0 0 0 0 0 0 0 0 0 0 0 0 0 127 0" result="hardAlpha"/>
<feOffset dy="4"/>
<feGaussianBlur stdDeviation="2"/>
<feComposite in2="hardAlpha" operator="out"/>
<feColorMatrix type="matrix" values="0 0 0 0 0 0 0 0 0 0 0 0 0 0 0 0 0 0 0.25 0"/>
<feBlend mode="normal" in2="BackgroundImageFix" result="effect1_dropShadow_6059_1297"/>
<feBlend mode="normal" in="SourceGraphic" in2="effect1_dropShadow_6059_1297" result="shape"/>
</filter>
<filter id="filter1_dddddddd_6059_1297" x="9.07166" y="25.7103" width="124.224" height="172.038" filterUnits="userSpaceOnUse" color-interpolation-filters="sRGB">
<feFlood flood-opacity="0" result="BackgroundImageFix"/>
<feColorMatrix in="SourceAlpha" type="matrix" values="0 0 0 0 0 0 0 0 0 0 0 0 0 0 0 0 0 0 127 0" result="hardAlpha"/>
<feOffset dx="-2.29564" dy="-3.26193"/>
<feGaussianBlur stdDeviation="1.73129"/>
<feColorMatrix type="matrix" values="0 0 0 0 1 0 0 0 0 1 0 0 0 0 1 0 0 0 0.2 0"/>
<feBlend mode="normal" in2="BackgroundImageFix" result="effect1_dropShadow_6059_1297"/>
<feColorMatrix in="SourceAlpha" type="matrix" values="0 0 0 0 0 0 0 0 0 0 0 0 0 0 0 0 0 0 127 0" result="hardAlpha"/>
<feOffset dx="-2.29564" dy="-3.6"/>
<feGaussianBlur stdDeviation="2.01017"/>
<feColorMatrix type="matrix" values="0 0 0 0 1 0 0 0 0 1 0 0 0 0 1 0 0 0 0.3 0"/>
<feBlend mode="normal" in2="effect1_dropShadow_6059_1297" result="effect2_dropShadow_6059_1297"/>
<feColorMatrix in="SourceAlpha" type="matrix" values="0 0 0 0 0 0 0 0 0 0 0 0 0 0 0 0 0 0 127 0" result="hardAlpha"/>
<feOffset dx="-2.29564" dy="-4.2279"/>
<feGaussianBlur stdDeviation="2.44898"/>
<feColorMatrix type="matrix" values="0 0 0 0 1 0 0 0 0 1 0 0 0 0 1 0 0 0 0.4 0"/>
<feBlend mode="normal" in2="effect2_dropShadow_6059_1297" result="effect3_dropShadow_6059_1297"/>
<feColorMatrix in="SourceAlpha" type="matrix" values="0 0 0 0 0 0 0 0 0 0 0 0 0 0 0 0 0 0 127 0" result="hardAlpha"/>
<feOffset dx="-2.29564" dy="-7.23126"/>
<feGaussianBlur stdDeviation="3.73041"/>
<feColorMatrix type="matrix" values="0 0 0 0 1 0 0 0 0 1 0 0 0 0 1 0 0 0 0.5 0"/>
<feBlend mode="normal" in2="effect3_dropShadow_6059_1297" result="effect4_dropShadow_6059_1297"/>
<feColorMatrix in="SourceAlpha" type="matrix" values="0 0 0 0 0 0 0 0 0 0 0 0 0 0 0 0 0 0 127 0" result="hardAlpha"/>
<feOffset dx="3.44346" dy="4.01737"/>
<feGaussianBlur stdDeviation="2.58259"/>
<feColorMatrix type="matrix" values="0 0 0 0 0.819608 0 0 0 0 0.85098 0 0 0 0 0.901961 0 0 0 0.48 0"/>
<feBlend mode="normal" in2="effect4_dropShadow_6059_1297" result="effect5_dropShadow_6059_1297"/>
<feColorMatrix in="SourceAlpha" type="matrix" values="0 0 0 0 0 0 0 0 0 0 0 0 0 0 0 0 0 0 127 0" result="hardAlpha"/>
<feOffset dx="3.44346" dy="3.21389"/>
<feGaussianBlur stdDeviation="2.18086"/>
<feColorMatrix type="matrix" values="0 0 0 0 0.819608 0 0 0 0 0.85098 0 0 0 0 0.901961 0 0 0 0.4 0"/>
<feBlend mode="normal" in2="effect5_dropShadow_6059_1297" result="effect6_dropShadow_6059_1297"/>
<feColorMatrix in="SourceAlpha" type="matrix" values="0 0 0 0 0 0 0 0 0 0 0 0 0 0 0 0 0 0 127 0" result="hardAlpha"/>
<feOffset dx="3.44346" dy="2.75477"/>
<feGaussianBlur stdDeviation="1.95129"/>
<feColorMatrix type="matrix" values="0 0 0 0 0.819608 0 0 0 0 0.85098 0 0 0 0 0.901961 0 0 0 0.34 0"/>
<feBlend mode="normal" in2="effect6_dropShadow_6059_1297" result="effect7_dropShadow_6059_1297"/>
<feColorMatrix in="SourceAlpha" type="matrix" values="0 0 0 0 0 0 0 0 0 0 0 0 0 0 0 0 0 0 127 0" result="hardAlpha"/>
<feOffset dx="2.98433" dy="6.19823"/>
<feGaussianBlur stdDeviation="3.8452"/>
<feColorMatrix type="matrix" values="0 0 0 0 0.819608 0 0 0 0 0.85098 0 0 0 0 0.901961 0 0 0 0.67 0"/>
<feBlend mode="normal" in2="effect7_dropShadow_6059_1297" result="effect8_dropShadow_6059_1297"/>
<feBlend mode="normal" in="SourceGraphic" in2="effect8_dropShadow_6059_1297" result="shape"/>
</filter>
<filter id="filter2_d_6059_1297" x="63.9717" y="82.1185" width="13.1504" height="15.879" filterUnits="userSpaceOnUse" color-interpolation-filters="sRGB">
<feFlood flood-opacity="0" result="BackgroundImageFix"/>
<feColorMatrix in="SourceAlpha" type="matrix" values="0 0 0 0 0 0 0 0 0 0 0 0 0 0 0 0 0 0 127 0" result="hardAlpha"/>
<feOffset dy="0.35482"/>
<feGaussianBlur stdDeviation="1.59669"/>
<feComposite in2="hardAlpha" operator="out"/>
<feColorMatrix type="matrix" values="0 0 0 0 0 0 0 0 0 0 0 0 0 0 0 0 0 0 0.11 0"/>
<feBlend mode="normal" in2="BackgroundImageFix" result="effect1_dropShadow_6059_1297"/>
<feBlend mode="normal" in="SourceGraphic" in2="effect1_dropShadow_6059_1297" result="shape"/>
</filter>
<clipPath id="clip0_6059_1297">
<rect x="4" width="133.448" height="215" rx="5.93103" fill="white"/>
</clipPath>
</defs>
</svg>
