<svg width="31" height="31" viewBox="0 0 31 31" fill="none" xmlns="http://www.w3.org/2000/svg">
<mask id="mask0_6047_766" style="mask-type:alpha" maskUnits="userSpaceOnUse" x="0" y="0" width="31" height="31">
<rect x="0.28125" y="0.496094" width="30" height="30" fill="#D9D9D9"/>
</mask>
<g mask="url(#mask0_6047_766)">
<path d="M23.6037 27.3402C23.453 27.3402 23.3128 27.3162 23.183 27.2681C23.0532 27.22 22.9298 27.1375 22.8128 27.0205L16.5099 20.7296C16.3929 20.6126 16.3104 20.4892 16.2623 20.3594C16.2143 20.2296 16.1902 20.0894 16.1902 19.9388C16.1902 19.7881 16.2143 19.6479 16.2623 19.5181C16.3104 19.3883 16.3929 19.2649 16.5099 19.1479L18.8777 16.7801C18.9947 16.6631 19.1181 16.5806 19.2479 16.5325C19.3777 16.4845 19.5179 16.4604 19.6686 16.4604C19.8192 16.4604 19.9594 16.4845 20.0892 16.5325C20.219 16.5806 20.3424 16.6631 20.4594 16.7801L26.7623 23.083C26.8793 23.2 26.9618 23.3234 27.0099 23.4532C27.058 23.583 27.082 23.7232 27.082 23.8739C27.082 24.0245 27.058 24.1647 27.0099 24.2945C26.9618 24.4244 26.8793 24.5478 26.7623 24.6647L24.3945 27.0205C24.2775 27.1375 24.1541 27.22 24.0244 27.2681C23.8945 27.3162 23.7543 27.3402 23.6037 27.3402ZM23.6037 25.2008L24.9306 23.8739L19.6878 18.631L18.3608 19.958L23.6037 25.2008ZM6.92823 27.3594C6.77758 27.3594 6.63415 27.3322 6.49795 27.2777C6.36172 27.2232 6.23511 27.1375 6.11813 27.0205L3.7696 24.684C3.6526 24.567 3.56686 24.4404 3.51238 24.3042C3.4579 24.1679 3.43066 24.0245 3.43066 23.8739C3.43066 23.7232 3.4579 23.581 3.51238 23.4472C3.56686 23.3134 3.6526 23.188 3.7696 23.071L10.2984 16.5421H12.9306L13.9451 15.5277L8.7167 10.2994H6.93545L3.46673 6.83064L6.56526 3.73211L10.034 7.20083V8.98208L15.2624 14.2105L18.9595 10.5133L17.1349 8.6888L18.7166 7.10708H15.5339L14.8393 6.42439L18.832 2.43164L19.5147 3.1143V6.30898L21.0964 4.72727L25.7984 9.40517C26.1285 9.7273 26.3773 10.0943 26.5448 10.5061C26.7122 10.918 26.7959 11.3539 26.7959 11.8138C26.7959 12.2177 26.7262 12.6067 26.5868 12.9809C26.4474 13.355 26.2447 13.6952 25.9787 14.0013L23.3705 11.3931L21.6085 13.1551L20.2839 11.8306L14.2359 17.8787V20.5157L7.71907 27.0205C7.60209 27.1375 7.4787 27.2232 7.34888 27.2777C7.21909 27.3322 7.07887 27.3594 6.92823 27.3594ZM6.92823 25.1888L12.6614 19.4556V18.1286H11.3345L5.60126 23.8619L6.92823 25.1888ZM6.92823 25.1888L5.60126 23.8619L6.27435 24.5157L6.92823 25.1888Z" fill="#1C1B1F"/>
</g>
</svg>
