<svg width="25" height="25" viewBox="0 0 25 25" fill="none" xmlns="http://www.w3.org/2000/svg">
<mask id="mask0_5597_754" style="mask-type:alpha" maskUnits="userSpaceOnUse" x="0" y="0" width="25" height="25">
<rect x="0.929688" y="0.25" width="24" height="24" fill="#D9D9D9"/>
</mask>
<g mask="url(#mask0_5597_754)">
<path d="M6.77979 19.8C5.99645 19.8 5.33379 19.5293 4.79179 18.988C4.25045 18.446 3.97979 17.7833 3.97979 17H2.27979V6.55C2.27979 6.05 2.45479 5.625 2.80479 5.275C3.15479 4.925 3.57979 4.75 4.07979 4.75H17.7048V8.55H20.3548L23.5798 12.875V17H21.7798C21.7798 17.7833 21.5048 18.446 20.9548 18.988C20.4048 19.5293 19.7381 19.8 18.9548 19.8C18.1881 19.8 17.5298 19.5293 16.9798 18.988C16.4298 18.446 16.1548 17.7833 16.1548 17H9.57978C9.57978 17.7833 9.30912 18.446 8.76779 18.988C8.22579 19.5293 7.56312 19.8 6.77979 19.8ZM6.77979 18.3C7.14645 18.3 7.45479 18.175 7.70479 17.925C7.95479 17.675 8.07979 17.3667 8.07979 17C8.07979 16.6333 7.95479 16.325 7.70479 16.075C7.45479 15.825 7.14645 15.7 6.77979 15.7C6.41312 15.7 6.10479 15.825 5.85479 16.075C5.60479 16.325 5.47979 16.6333 5.47979 17C5.47979 17.3667 5.60479 17.675 5.85479 17.925C6.10479 18.175 6.41312 18.3 6.77979 18.3ZM3.77979 15.5H4.50479C4.72145 15.1333 5.02979 14.825 5.42979 14.575C5.82979 14.325 6.27979 14.2 6.77979 14.2C7.26312 14.2 7.70912 14.3207 8.11779 14.562C8.52579 14.804 8.83812 15.1167 9.05479 15.5H16.2048V6.25H4.07979C4.01312 6.25 3.94645 6.28333 3.87979 6.35C3.81312 6.41667 3.77979 6.48333 3.77979 6.55V15.5ZM18.9798 18.3C19.3465 18.3 19.6548 18.175 19.9048 17.925C20.1548 17.675 20.2798 17.3667 20.2798 17C20.2798 16.6333 20.1548 16.325 19.9048 16.075C19.6548 15.825 19.3465 15.7 18.9798 15.7C18.6131 15.7 18.3008 15.825 18.0428 16.075C17.7841 16.325 17.6548 16.6333 17.6548 17C17.6548 17.3667 17.7841 17.675 18.0428 17.925C18.3008 18.175 18.6131 18.3 18.9798 18.3ZM17.7048 13.5H22.1798L19.5798 10.05H17.7048V13.5Z" fill="#1C1B1F"/>
</g>
</svg>
