<svg width="120" height="33" viewBox="0 0 120 33" fill="none" xmlns="http://www.w3.org/2000/svg">
<path d="M20.3223 18.9068V18.8552C20.3223 14.8326 23.6126 11.4648 28.1546 11.4648C32.6965 11.4648 35.9385 14.781 35.9385 18.8036V18.8552C35.9385 22.8778 32.6481 26.2456 28.1029 26.2456C23.5578 26.2456 20.3223 22.9294 20.3223 18.9068ZM31.1062 18.9068V18.8552C31.1062 17.1326 29.8546 15.6681 28.1029 15.6681C26.2997 15.6681 25.1513 17.1036 25.1513 18.8036V18.8552C25.1513 20.5778 26.4062 22.0391 28.1546 22.0391C29.961 22.0391 31.1094 20.6036 31.1094 18.9068H31.1062Z" fill="#0C87C9"/>
<path d="M37.1426 18.9044V18.8528C37.1426 14.256 40.0168 11.4624 43.3587 11.4624C45.5007 11.4624 46.7523 12.4302 47.6942 13.4979V6.83984H52.6556V25.9044H47.6942V24.0238C46.7265 25.198 45.5007 26.2174 43.3845 26.2174C40.0426 26.2174 37.1426 23.4238 37.1426 18.9044ZM47.7878 18.8528V18.8012C47.7878 16.9463 46.4975 15.6141 44.9136 15.6141C43.3297 15.6141 42.0103 16.9205 42.0103 18.8012V18.8528C42.0103 20.7335 43.3168 22.0786 44.9136 22.0786C46.5104 22.0786 47.7717 20.7335 47.7717 18.8528H47.7878Z" fill="#0C87C9"/>
<path d="M54.377 18.9068V18.8552C54.377 14.7294 57.3286 11.4648 61.506 11.4648C66.3899 11.4648 68.6351 15.0423 68.6351 19.2068C68.6351 19.5294 68.6351 19.8875 68.6093 20.2262H59.1576C59.5479 21.7681 60.6705 22.5488 62.2125 22.5488C63.3867 22.5488 64.3254 22.1068 65.3447 21.1133L68.0867 23.3714C66.7286 25.0972 64.7705 26.2456 61.9576 26.2456C57.5125 26.2456 54.377 23.2939 54.377 18.9068ZM63.9867 17.681C63.806 16.1133 62.8899 15.1197 61.5318 15.1197C60.2254 15.1197 59.3383 16.1391 59.077 17.681H63.9867Z" fill="#0C87C9"/>
<path d="M75.348 24.1948V25.9044H70.3867V6.83984H75.348V13.656C76.3158 12.4818 77.5158 11.4624 79.6287 11.4624C82.9997 11.4624 85.8965 14.256 85.8965 18.7754V18.827C85.8965 23.4238 82.9932 26.2173 79.6577 26.2173C78.8314 26.2394 78.0114 26.068 77.2632 25.7168C76.5149 25.3657 75.8591 24.8444 75.348 24.1948ZM81.0158 18.8689V18.8173C81.0158 16.9625 79.7255 15.6302 78.1126 15.6302C76.4996 15.6302 75.2383 16.9625 75.2383 18.8173V18.8689C75.2383 20.7496 76.5287 22.0948 78.1126 22.0948C79.6964 22.0948 81.0158 20.7593 81.0158 18.8528V18.8689Z" fill="#0C87C9"/>
<path d="M87.0957 18.9068V18.8552C87.0957 14.7294 90.0473 11.4648 94.2248 11.4648C99.1087 11.4648 101.354 15.0423 101.354 19.2068C101.354 19.5294 101.354 19.8875 101.328 20.2262H91.8764C92.2699 21.7681 93.3925 22.5488 94.9312 22.5488C96.1086 22.5488 97.0474 22.1068 98.0667 21.1133L100.809 23.3714C99.4506 25.0972 97.4925 26.2456 94.6796 26.2456C90.2312 26.2456 87.0957 23.2939 87.0957 18.9068ZM96.7054 17.681C96.5216 16.1133 95.6086 15.1197 94.2506 15.1197C92.9441 15.1197 92.057 16.1391 91.7957 17.681H96.7054Z" fill="#0C87C9"/>
<path d="M103.227 6.83984H108.188V25.9044H103.227V6.83984Z" fill="#0C87C9"/>
<path d="M110.682 6.83984H115.643V25.9044H110.682V6.83984Z" fill="#0C87C9"/>
<path d="M19.6765 12.4893H6.41519C6.40236 12.4897 6.38958 12.4875 6.37763 12.4828C6.36569 12.4781 6.35484 12.471 6.34576 12.4619C6.33668 12.4528 6.32957 12.442 6.32487 12.43C6.32016 12.4181 6.31797 12.4053 6.31842 12.3925V12.2054C6.31842 10.9072 6.83389 9.66221 7.75152 8.74397C8.66915 7.82574 9.91384 7.30945 11.212 7.30859H14.8894C16.1876 7.30945 17.4323 7.82574 18.3499 8.74397C19.2675 9.66221 19.783 10.9072 19.783 12.2054V12.3925C19.7799 12.4187 19.7674 12.443 19.7479 12.4608C19.7283 12.4785 19.703 12.4887 19.6765 12.4893Z" fill="#0C87C9"/>
<path d="M14.5971 21.043H6.31641C6.31469 22.4144 6.8572 23.7306 7.82486 24.7024C8.79252 25.6743 10.1063 26.2226 11.4777 26.2269H19.7745C19.775 25.5465 19.6414 24.8728 19.3814 24.2441C19.1215 23.6154 18.7402 23.044 18.2594 22.5626C17.7787 22.0813 17.2078 21.6993 16.5794 21.4386C15.951 21.1778 15.2774 21.0434 14.5971 21.043Z" fill="#0C87C9"/>
<path d="M12.2584 21.0494H6.31641V12.1881C6.31598 11.5493 6.44139 10.9166 6.68546 10.3263C6.92954 9.7359 7.2875 9.1994 7.73892 8.74738C8.19033 8.29537 8.72636 7.93669 9.31639 7.69184C9.90642 7.44698 10.5389 7.32074 11.1777 7.32031H12.2584V21.0494Z" fill="#0C87C9"/>
</svg>
