<svg width="25" height="24" viewBox="0 0 25 24" fill="none" xmlns="http://www.w3.org/2000/svg">
<mask id="mask0_5927_733" style="mask-type:alpha" maskUnits="userSpaceOnUse" x="0" y="0" width="25" height="24">
<rect x="0.429688" width="24" height="24" fill="#D9D9D9"/>
</mask>
<g mask="url(#mask0_5927_733)">
<path d="M8.42969 6.4L5.42969 3.4L6.82969 2L9.82969 5L8.42969 6.4ZM16.4297 6.4L15.0297 5L18.0297 2L19.4297 3.4L16.4297 6.4ZM11.4297 5V0H13.4297V5H11.4297ZM4.42969 24C4.14635 24 3.90885 23.9042 3.71719 23.7125C3.52552 23.5208 3.42969 23.2833 3.42969 23V15L5.52969 9C5.62969 8.7 5.80885 8.45833 6.06719 8.275C6.32552 8.09167 6.61302 8 6.92969 8H17.9297C18.2464 8 18.5339 8.09167 18.7922 8.275C19.0505 8.45833 19.2297 8.7 19.3297 9L21.4297 15V23C21.4297 23.2833 21.3339 23.5208 21.1422 23.7125C20.9505 23.9042 20.713 24 20.4297 24H19.4297C19.1464 24 18.9089 23.9042 18.7172 23.7125C18.5255 23.5208 18.4297 23.2833 18.4297 23V22H6.42969V23C6.42969 23.2833 6.33385 23.5208 6.14219 23.7125C5.95052 23.9042 5.71302 24 5.42969 24H4.42969ZM6.22969 13H18.6297L17.5797 10H7.27969L6.22969 13ZM7.92969 19C8.34635 19 8.70052 18.8542 8.99219 18.5625C9.28385 18.2708 9.42969 17.9167 9.42969 17.5C9.42969 17.0833 9.28385 16.7292 8.99219 16.4375C8.70052 16.1458 8.34635 16 7.92969 16C7.51302 16 7.15885 16.1458 6.86719 16.4375C6.57552 16.7292 6.42969 17.0833 6.42969 17.5C6.42969 17.9167 6.57552 18.2708 6.86719 18.5625C7.15885 18.8542 7.51302 19 7.92969 19ZM16.9297 19C17.3464 19 17.7005 18.8542 17.9922 18.5625C18.2839 18.2708 18.4297 17.9167 18.4297 17.5C18.4297 17.0833 18.2839 16.7292 17.9922 16.4375C17.7005 16.1458 17.3464 16 16.9297 16C16.513 16 16.1589 16.1458 15.8672 16.4375C15.5755 16.7292 15.4297 17.0833 15.4297 17.5C15.4297 17.9167 15.5755 18.2708 15.8672 18.5625C16.1589 18.8542 16.513 19 16.9297 19ZM5.42969 20H19.4297V15H5.42969V20Z" fill="#1C1B1F"/>
</g>
</svg>
