<svg width="25" height="24" viewBox="0 0 25 24" fill="none" xmlns="http://www.w3.org/2000/svg">
<mask id="mask0_5461_659" style="mask-type:alpha" maskUnits="userSpaceOnUse" x="0" y="0" width="25" height="24">
<rect x="0.84375" width="24" height="24" fill="#D9D9D9"/>
</mask>
<g mask="url(#mask0_5461_659)">
<path d="M3.34375 7.025V2.5H7.86875V4H4.84375V7.025H3.34375ZM3.34375 21.5V16.975H4.84375V20H7.86875V21.5H3.34375ZM17.8188 21.5V20H20.8438V16.975H22.3438V21.5H17.8188ZM20.8438 7.025V4H17.8188V2.5H22.3438V7.025H20.8438ZM18.0688 17.225H19.4188V18.575H18.0688V17.225ZM18.0688 14.5H19.4188V15.875H18.0688V14.5ZM16.7188 15.875H18.0688V17.225H16.7188V15.875ZM15.3438 17.225H16.7188V18.575H15.3438V17.225ZM13.9937 15.875H15.3438V17.225H13.9937V15.875ZM16.7188 13.15H18.0688V14.5H16.7188V13.15ZM15.3438 14.5H16.7188V15.875H15.3438V14.5ZM13.9937 13.15H15.3438V14.5H13.9937V13.15ZM19.4188 5.425V10.85H13.9937V5.425H19.4188ZM11.6938 13.15V18.575H6.26875V13.15H11.6938ZM11.6938 5.425V10.85H6.26875V5.425H11.6938ZM10.4937 17.375V14.35H7.46875V17.375H10.4937ZM10.4937 9.65V6.625H7.46875V9.65H10.4937ZM18.2188 9.65V6.625H15.1938V9.65H18.2188Z" fill="#1C1B1F"/>
</g>
</svg>
