<svg width="64" height="67" viewBox="0 0 64 67" fill="none" xmlns="http://www.w3.org/2000/svg">
<ellipse cx="32.343" cy="33.5" rx="31.6575" ry="33.5" fill="#2563EB"/>
<path d="M46.0456 46H35.5192C34.4908 42.4082 33.9765 38.6857 33.9765 34.8327C33.9765 30.9143 34.9142 27.8122 36.7896 25.5265C38.7255 23.1755 41.5689 22 45.3197 22V27.4857C42.2948 27.4857 40.7824 29.4776 40.7824 33.4612V35.3224H46.0456V46ZM30.7097 46H20.1833C19.1548 42.4082 18.6406 38.6857 18.6406 34.8327C18.6406 30.9143 19.5783 27.8122 21.4537 25.5265C23.3896 23.1755 26.233 22 29.9838 22V27.4857C26.9589 27.4857 25.4465 29.4776 25.4465 33.4612V35.3224H30.7097V46Z" fill="white"/>
</svg>
