<svg width="19" height="25" viewBox="0 0 19 25" fill="none" xmlns="http://www.w3.org/2000/svg">
<path d="M9.37497 24.6172C6.67145 23.8801 4.43307 22.2887 2.65984 19.8432C0.886614 17.3977 0 14.6637 0 11.6413V4.44905L9.37497 0.939453L18.7499 4.44905V11.6413C18.7499 14.6637 17.8633 17.3977 16.0901 19.8432C14.3169 22.2887 12.0785 23.8801 9.37497 24.6172ZM9.37497 22.6413C11.3958 22.0163 13.0833 20.782 14.4375 18.9382C15.7916 17.0945 16.5833 15.0372 16.8125 12.7663H9.37497V2.93461L1.87497 5.73508V12.1918C1.87497 12.3457 1.8958 12.5372 1.93747 12.7663H9.37497V22.6413Z" fill="#1C1B1F"/>
</svg>
