<svg width="25" height="25" viewBox="0 0 25 25" fill="none" xmlns="http://www.w3.org/2000/svg">
<mask id="mask0_5539_1064" style="mask-type:alpha" maskUnits="userSpaceOnUse" x="0" y="0" width="25" height="25">
<rect x="0.698242" y="0.15625" width="24" height="24" fill="#D9D9D9"/>
</mask>
<g mask="url(#mask0_5539_1064)">
<path d="M7.69824 22.1562C7.14824 22.1562 6.67741 21.9604 6.28574 21.5688C5.89408 21.1771 5.69824 20.7063 5.69824 20.1562C5.69824 19.6062 5.89408 19.1354 6.28574 18.7437C6.67741 18.3521 7.14824 18.1562 7.69824 18.1562C8.24824 18.1562 8.71908 18.3521 9.11074 18.7437C9.50241 19.1354 9.69824 19.6062 9.69824 20.1562C9.69824 20.7063 9.50241 21.1771 9.11074 21.5688C8.71908 21.9604 8.24824 22.1562 7.69824 22.1562ZM17.6982 22.1562C17.1482 22.1562 16.6774 21.9604 16.2857 21.5688C15.8941 21.1771 15.6982 20.7063 15.6982 20.1562C15.6982 19.6062 15.8941 19.1354 16.2857 18.7437C16.6774 18.3521 17.1482 18.1562 17.6982 18.1562C18.2482 18.1562 18.7191 18.3521 19.1107 18.7437C19.5024 19.1354 19.6982 19.6062 19.6982 20.1562C19.6982 20.7063 19.5024 21.1771 19.1107 21.5688C18.7191 21.9604 18.2482 22.1562 17.6982 22.1562ZM6.84824 6.15625L9.24824 11.1562H16.2482L18.9982 6.15625H6.84824ZM5.89824 4.15625H20.6482C21.0316 4.15625 21.3232 4.32708 21.5232 4.66875C21.7232 5.01042 21.7316 5.35625 21.5482 5.70625L17.9982 12.1062C17.8149 12.4396 17.5691 12.6979 17.2607 12.8813C16.9524 13.0646 16.6149 13.1562 16.2482 13.1562H8.79824L7.69824 15.1562H19.6982V17.1562H7.69824C6.94824 17.1562 6.38158 16.8271 5.99824 16.1687C5.61491 15.5104 5.59824 14.8563 5.94824 14.2063L7.29824 11.7563L3.69824 4.15625H1.69824V2.15625H4.94824L5.89824 4.15625Z" fill="#1C1B1F"/>
</g>
</svg>
