<svg width="22" height="22" viewBox="0 0 22 22" fill="none" xmlns="http://www.w3.org/2000/svg">
<path d="M0.84375 12.5L2.94375 6.5C3.04375 6.2 3.22292 5.95833 3.48125 5.775C3.73958 5.59167 4.02708 5.5 4.34375 5.5H6.84375V3.5H10.1438C9.94375 4.15 9.84375 4.81667 9.84375 5.5C9.84375 6.18333 9.94375 6.85 10.1438 7.5H4.69375L3.64375 10.5H11.9438C12.5938 11.15 13.3438 11.6458 14.1938 11.9875C15.0438 12.3292 15.9271 12.5 16.8438 12.5C17.1771 12.5 17.4979 12.4792 17.8062 12.4375C18.1146 12.3958 18.4271 12.3333 18.7437 12.25L18.8438 12.5V20.5C18.8438 20.7833 18.7479 21.0208 18.5562 21.2125C18.3646 21.4042 18.1271 21.5 17.8438 21.5H16.8438C16.5604 21.5 16.3229 21.4042 16.1313 21.2125C15.9396 21.0208 15.8438 20.7833 15.8438 20.5V19.5H3.84375V20.5C3.84375 20.7833 3.74792 21.0208 3.55625 21.2125C3.36458 21.4042 3.12708 21.5 2.84375 21.5H1.84375C1.56042 21.5 1.32292 21.4042 1.13125 21.2125C0.939583 21.0208 0.84375 20.7833 0.84375 20.5V12.5ZM5.34375 16.5C5.76042 16.5 6.11458 16.3542 6.40625 16.0625C6.69792 15.7708 6.84375 15.4167 6.84375 15C6.84375 14.5833 6.69792 14.2292 6.40625 13.9375C6.11458 13.6458 5.76042 13.5 5.34375 13.5C4.92708 13.5 4.57292 13.6458 4.28125 13.9375C3.98958 14.2292 3.84375 14.5833 3.84375 15C3.84375 15.4167 3.98958 15.7708 4.28125 16.0625C4.57292 16.3542 4.92708 16.5 5.34375 16.5ZM14.3438 16.5C14.7604 16.5 15.1146 16.3542 15.4062 16.0625C15.6979 15.7708 15.8438 15.4167 15.8438 15C15.8438 14.5833 15.6979 14.2292 15.4062 13.9375C15.1146 13.6458 14.7604 13.5 14.3438 13.5C13.9271 13.5 13.5729 13.6458 13.2812 13.9375C12.9896 14.2292 12.8438 14.5833 12.8438 15C12.8438 15.4167 12.9896 15.7708 13.2812 16.0625C13.5729 16.3542 13.9271 16.5 14.3438 16.5ZM16.8438 10.5C15.4604 10.5 14.2813 10.0125 13.3063 9.0375C12.3313 8.0625 11.8438 6.88333 11.8438 5.5C11.8438 4.11667 12.3313 2.9375 13.3063 1.9625C14.2813 0.9875 15.4604 0.5 16.8438 0.5C18.2271 0.5 19.4062 0.9875 20.3813 1.9625C21.3563 2.9375 21.8438 4.11667 21.8438 5.5C21.8438 6.88333 21.3563 8.0625 20.3813 9.0375C19.4062 10.0125 18.2271 10.5 16.8438 10.5ZM16.3438 6.5H17.3438V2.5H16.3438V6.5ZM16.8438 8.5C16.9771 8.5 17.0938 8.45 17.1938 8.35C17.2938 8.25 17.3438 8.13333 17.3438 8C17.3438 7.86667 17.2938 7.75 17.1938 7.65C17.0938 7.55 16.9771 7.5 16.8438 7.5C16.7104 7.5 16.5938 7.55 16.4938 7.65C16.3938 7.75 16.3438 7.86667 16.3438 8C16.3438 8.13333 16.3938 8.25 16.4938 8.35C16.5938 8.45 16.7104 8.5 16.8438 8.5ZM2.84375 17.5H16.8438V12.5H2.84375V17.5Z" fill="#1C1B1F"/>
</svg>
