<svg width="18" height="27" viewBox="0 0 18 27" fill="none" xmlns="http://www.w3.org/2000/svg">
    <path
        d="M4 26.8438C3.6875 26.8438 3.42708 26.7396 3.21875 26.5312C3.01042 26.3229 2.90625 26.0625 2.90625 25.75C2.90625 25.4375 3.01042 25.1771 3.21875 24.9688C3.42708 24.7604 3.6875 24.6562 4 24.6562C4.3125 24.6562 4.57292 24.7604 4.78125 24.9688C4.98958 25.1771 5.09375 25.4375 5.09375 25.75C5.09375 26.0625 4.98958 26.3229 4.78125 26.5312C4.57292 26.7396 4.3125 26.8438 4 26.8438ZM9 26.8438C8.6875 26.8438 8.42708 26.7396 8.21875 26.5312C8.01042 26.3229 7.90625 26.0625 7.90625 25.75C7.90625 25.4375 8.01042 25.1771 8.21875 24.9688C8.42708 24.7604 8.6875 24.6562 9 24.6562C9.3125 24.6562 9.57292 24.7604 9.78125 24.9688C9.98958 25.1771 10.0938 25.4375 10.0938 25.75C10.0938 26.0625 9.98958 26.3229 9.78125 26.5312C9.57292 26.7396 9.3125 26.8438 9 26.8438ZM14 26.8438C13.6875 26.8438 13.4271 26.7396 13.2188 26.5312C13.0104 26.3229 12.9062 26.0625 12.9062 25.75C12.9062 25.4375 13.0104 25.1771 13.2188 24.9688C13.4271 24.7604 13.6875 24.6562 14 24.6562C14.3125 24.6562 14.5729 24.7604 14.7812 24.9688C14.9896 25.1771 15.0938 25.4375 15.0938 25.75C15.0938 26.0625 14.9896 26.3229 14.7812 26.5312C14.5729 26.7396 14.3125 26.8438 14 26.8438ZM9 13.875C8.125 13.875 7.38542 13.5729 6.78125 12.9688C6.17708 12.3646 5.875 11.625 5.875 10.75V3.25C5.875 2.375 6.17708 1.63542 6.78125 1.03125C7.38542 0.427083 8.125 0.125 9 0.125C9.875 0.125 10.6146 0.427083 11.2188 1.03125C11.8229 1.63542 12.125 2.375 12.125 3.25V10.75C12.125 11.625 11.8229 12.3646 11.2188 12.9688C10.6146 13.5729 9.875 13.875 9 13.875ZM8.0625 22.9375V18.8125C6 18.5833 4.28667 17.7033 2.9225 16.1725C1.5575 14.6408 0.875 12.8333 0.875 10.75H2.75C2.75 12.4792 3.35958 13.9529 4.57875 15.1712C5.79708 16.3904 7.27083 17 9 17C10.7292 17 12.2033 16.3904 13.4225 15.1712C14.6408 13.9529 15.25 12.4792 15.25 10.75H17.125C17.125 12.8333 16.4429 14.6408 15.0788 16.1725C13.7138 17.7033 12 18.5833 9.9375 18.8125V22.9375H8.0625ZM9 12C9.35417 12 9.65125 11.88 9.89125 11.64C10.1304 11.4008 10.25 11.1042 10.25 10.75V3.25C10.25 2.89583 10.1304 2.59875 9.89125 2.35875C9.65125 2.11958 9.35417 2 9 2C8.64583 2 8.34917 2.11958 8.11 2.35875C7.87 2.59875 7.75 2.89583 7.75 3.25V10.75C7.75 11.1042 7.87 11.4008 8.11 11.64C8.34917 11.88 8.64583 12 9 12Z"
        fill="#1C1B1F" />
</svg>