<svg width="21" height="21" viewBox="0 0 21 21" fill="none" xmlns="http://www.w3.org/2000/svg">
    <path
        d="M2.21484 20.2109V15.2109H0.339844V13.3359H2.21484V10.2109H0.339844V8.33594H2.21484V4.39844L5.65234 0.960938L8.15234 3.46094L10.6836 0.960938L13.1836 3.46094L15.6836 0.960938L19.1211 4.39844V8.33594H20.9648V10.2109H19.1211V13.3359H20.9648V15.2109H19.1211V20.2109H2.21484ZM4.08984 8.33594H7.21484V5.17969L5.65234 3.61719L4.08984 5.17969V8.33594ZM9.08984 8.33594H12.2148V5.17969L10.6523 3.61719L9.08984 5.17969V8.33594ZM14.1211 8.33594H17.2148V5.17969L15.6523 3.61719L14.1211 5.14844V8.33594ZM4.08984 13.3359H7.21484V10.2109H4.08984V13.3359ZM9.08984 13.3359H12.2148V10.2109H9.08984V13.3359ZM14.1211 13.3359H17.2148V10.2109H14.1211V13.3359ZM4.08984 18.3359H7.21484V15.2109H4.08984V18.3359ZM9.08984 18.3359H12.2148V15.2109H9.08984V18.3359ZM14.1211 18.3359H17.2148V15.2109H14.1211V18.3359Z"
        fill="#1C1B1F" />
</svg>