<svg width="22" height="22" viewBox="0 0 22 22" fill="none" xmlns="http://www.w3.org/2000/svg">
    <path
        d="M2.5332 21.8945C1.9082 21.8945 1.37695 21.6758 0.939453 21.2383C0.501953 20.8008 0.283203 20.2695 0.283203 19.6445V2.89453C0.283203 2.26953 0.501953 1.73828 0.939453 1.30078C1.37695 0.863281 1.9082 0.644531 2.5332 0.644531H19.2832C19.9082 0.644531 20.4395 0.863281 20.877 1.30078C21.3145 1.73828 21.5332 2.26953 21.5332 2.89453V19.6445C21.5332 20.2695 21.3145 20.8008 20.877 21.2383C20.4395 21.6758 19.9082 21.8945 19.2832 21.8945H2.5332ZM2.5332 20.0195H19.2832C19.3874 20.0195 19.4761 19.9833 19.5495 19.9108C19.622 19.8374 19.6582 19.7487 19.6582 19.6445V5.01953H2.1582V19.6445C2.1582 19.7487 2.19487 19.8374 2.2682 19.9108C2.3407 19.9833 2.42904 20.0195 2.5332 20.0195ZM10.9082 16.8945C9.36654 16.8945 7.99154 16.4883 6.7832 15.6758C5.57487 14.8633 4.67904 13.8112 4.0957 12.5195C4.67904 11.2279 5.57487 10.1758 6.7832 9.36328C7.99154 8.55078 9.36654 8.14453 10.9082 8.14453C12.4499 8.14453 13.8249 8.55078 15.0332 9.36328C16.2415 10.1758 17.1374 11.2279 17.7207 12.5195C17.1374 13.8112 16.2415 14.8633 15.0332 15.6758C13.8249 16.4883 12.4499 16.8945 10.9082 16.8945ZM10.9082 15.3945C11.9915 15.3945 12.9865 15.1445 13.8932 14.6445C14.799 14.1445 15.5332 13.4362 16.0957 12.5195C15.5332 11.6029 14.799 10.8945 13.8932 10.3945C12.9865 9.89453 11.9915 9.64453 10.9082 9.64453C9.82487 9.64453 8.83029 9.89453 7.92445 10.3945C7.01779 10.8945 6.2832 11.6029 5.7207 12.5195C6.2832 13.4362 7.01779 14.1445 7.92445 14.6445C8.83029 15.1445 9.82487 15.3945 10.9082 15.3945ZM10.9082 14.1445C11.3665 14.1445 11.752 13.9883 12.0645 13.6758C12.377 13.3633 12.5332 12.9779 12.5332 12.5195C12.5332 12.0612 12.377 11.6758 12.0645 11.3633C11.752 11.0508 11.3665 10.8945 10.9082 10.8945C10.4499 10.8945 10.0645 11.0508 9.75195 11.3633C9.43945 11.6758 9.2832 12.0612 9.2832 12.5195C9.2832 12.9779 9.43945 13.3633 9.75195 13.6758C10.0645 13.9883 10.4499 14.1445 10.9082 14.1445Z"
        fill="#1C1B1F" />
</svg>