<svg width="24" height="20" viewBox="0 0 24 20" fill="none" xmlns="http://www.w3.org/2000/svg">
<path d="M2.6875 19.375C2.0625 19.375 1.53125 19.1563 1.09375 18.7188C0.65625 18.2813 0.4375 17.75 0.4375 17.125V2.875C0.4375 2.25 0.65625 1.71875 1.09375 1.28125C1.53125 0.84375 2.0625 0.625 2.6875 0.625H16.9063C17.5521 0.625 18.0938 0.84375 18.5313 1.28125C18.9688 1.71875 19.1875 2.25 19.1875 2.875V8.59375L23.5625 4.21875V15.7812L19.1875 11.4062V17.125C19.1875 17.75 18.9688 18.2813 18.5313 18.7188C18.0938 19.1563 17.5521 19.375 16.9063 19.375H2.6875ZM2.6875 17.5H16.9063C17.0313 17.5 17.1304 17.4638 17.2038 17.3913C17.2763 17.3179 17.3125 17.2292 17.3125 17.125V2.875C17.3125 2.77083 17.2763 2.6825 17.2038 2.61C17.1304 2.53667 17.0313 2.5 16.9063 2.5H2.6875C2.58333 2.5 2.495 2.53667 2.4225 2.61C2.34917 2.6825 2.3125 2.77083 2.3125 2.875V17.125C2.3125 17.2292 2.34917 17.3179 2.4225 17.3913C2.495 17.4638 2.58333 17.5 2.6875 17.5Z" fill="#1C1B1F"/>
</svg>
