<svg width="25" height="21" viewBox="0 0 25 21" fill="none" xmlns="http://www.w3.org/2000/svg">
    <path
        d="M12.5004 0.307617C12.3504 0.307617 12.2004 0.326367 12.0692 0.382617L0.491016 5.71697C0.247266 5.82947 0.247266 5.99822 0.491016 6.11072L12.0598 11.4451C12.1911 11.5013 12.3317 11.5201 12.4817 11.5201C12.6223 11.5201 12.7723 11.492 12.9036 11.4357L24.4723 6.09197C24.7161 5.97947 24.7067 5.80135 24.4723 5.68885L12.8942 0.345117C12.7536 0.288867 12.6129 0.260742 12.4629 0.260742L12.5004 0.307617ZM12.5004 2.25762L20.4598 5.92322L12.4911 9.58885L4.52227 5.91385L12.4817 2.23887L12.5004 2.25762ZM2.02852 9.1576L0.481641 9.92635C0.237891 10.0482 0.237891 10.2357 0.481641 10.3576L12.0504 16.142C12.1817 16.1982 12.3223 16.2263 12.4723 16.2263C12.6129 16.2263 12.7629 16.1888 12.8942 16.1326L24.4629 10.3388C24.7067 10.217 24.6973 10.0201 24.4629 9.89822L22.9161 9.1201L12.8754 14.1263C12.7348 14.1826 12.5942 14.2107 12.4442 14.2107C12.2942 14.2107 12.1442 14.1732 12.0129 14.117L1.97227 9.10135L2.02852 9.1576ZM2.02852 13.8451L0.481641 14.6138C0.237891 14.7357 0.237891 14.9232 0.481641 15.0451L12.0504 20.8295C12.1817 20.8857 12.3223 20.9138 12.4723 20.9138C12.6129 20.9138 12.7629 20.8763 12.8942 20.8201L24.4629 15.0263C24.7067 14.9045 24.6973 14.7076 24.4629 14.5857L22.9161 13.8076L12.8754 18.8139C12.7348 18.8701 12.5942 18.8982 12.4442 18.8982C12.2942 18.8982 12.1442 18.8607 12.0129 18.8045L1.97227 13.7888L2.02852 13.8451Z"
        fill="#161613" />
</svg>