<svg width="24" height="24" viewBox="0 0 24 24" fill="none" xmlns="http://www.w3.org/2000/svg">
    <path
        d="M18.5547 9.99121L17.2109 8.67871L19.5234 6.36621H12.6172V4.49121H19.5234L17.2422 2.20996L18.5547 0.866211L23.1484 5.45996L18.5547 9.99121ZM20.4922 23.3975C18.0755 23.3975 15.6747 22.8191 13.2897 21.6625C10.9039 20.5066 8.77344 18.9912 6.89844 17.1162C5.02344 15.2412 3.50802 13.1162 2.35219 10.7412C1.19552 8.36621 0.617188 5.95996 0.617188 3.52246C0.617188 3.14746 0.742187 2.83496 0.992187 2.58496C1.24219 2.33496 1.55469 2.20996 1.92969 2.20996H5.99219C6.32552 2.20996 6.61177 2.30871 6.85094 2.50621C7.09094 2.70454 7.24219 2.95996 7.30469 3.27246L8.02344 6.95996C8.0651 7.27246 8.05469 7.55371 7.99219 7.80371C7.92969 8.05371 7.79427 8.27246 7.58594 8.45996L4.71094 11.2725C5.71094 12.9391 6.89302 14.4495 8.25719 15.8037C9.62219 17.1579 11.1693 18.335 12.8984 19.335L15.6797 16.5225C15.888 16.3141 16.133 16.1683 16.4147 16.085C16.6955 16.0016 16.9818 15.9808 17.2734 16.0225L20.7422 16.7412C21.0547 16.8037 21.3101 16.9495 21.5084 17.1787C21.7059 17.4079 21.8047 17.6891 21.8047 18.0225V22.085C21.8047 22.46 21.6797 22.7725 21.4297 23.0225C21.1797 23.2725 20.8672 23.3975 20.4922 23.3975ZM3.83594 9.49121L6.05469 7.36621C6.09635 7.32454 6.1226 7.27746 6.13344 7.22496C6.14344 7.17329 6.13802 7.12663 6.11719 7.08496L5.58594 4.27246C5.5651 4.20996 5.53385 4.16288 5.49219 4.13121C5.45052 4.10038 5.39844 4.08496 5.33594 4.08496H2.67969C2.61719 4.08496 2.5701 4.10038 2.53844 4.13121C2.5076 4.16288 2.49219 4.19954 2.49219 4.24121C2.55469 5.09538 2.69552 5.96496 2.91469 6.84996C3.13302 7.73579 3.4401 8.61621 3.83594 9.49121ZM14.6484 20.21C15.4818 20.6058 16.3464 20.9079 17.2422 21.1162C18.138 21.3245 18.9818 21.4391 19.7734 21.46C19.8151 21.46 19.8518 21.4441 19.8834 21.4125C19.9143 21.3816 19.9297 21.3454 19.9297 21.3037V18.6787C19.9297 18.6162 19.9143 18.5641 19.8834 18.5225C19.8518 18.4808 19.8047 18.4495 19.7422 18.4287L17.1172 17.8975C17.0755 17.8766 17.0339 17.8766 16.9922 17.8975L16.8672 17.96L14.6484 20.21Z"
        fill="#1C1B1F" />
</svg>