<svg width="18" height="18" viewBox="0 0 18 18" fill="none" xmlns="http://www.w3.org/2000/svg">
<path d="M8.61543 17.75C6.44876 17.75 4.5611 17.0377 2.95243 15.613C1.34443 14.1877 0.423763 12.4 0.19043 10.25H1.71543C1.96543 11.9833 2.74043 13.4167 4.04043 14.55C5.34043 15.6833 6.86543 16.25 8.61543 16.25C10.5654 16.25 12.2198 15.5707 13.5784 14.212C14.9364 12.854 15.6154 11.2 15.6154 9.25C15.6154 7.3 14.9364 5.64567 13.5784 4.287C12.2198 2.929 10.5654 2.25 8.61543 2.25C7.5321 2.25 6.51143 2.49167 5.55343 2.975C4.59476 3.45833 3.77376 4.125 3.09043 4.975H5.69043V6.475H0.61543V1.4H2.11543V3.775C2.9321 2.80833 3.9071 2.06233 5.04043 1.537C6.17376 1.01233 7.36543 0.75 8.61543 0.75C9.79876 0.75 10.9071 0.975 11.9404 1.425C12.9738 1.875 13.8738 2.48333 14.6404 3.25C15.4071 4.01667 16.0111 4.91267 16.4524 5.938C16.8944 6.96267 17.1154 8.06667 17.1154 9.25C17.1154 10.4333 16.8944 11.5373 16.4524 12.562C16.0111 13.5873 15.4071 14.4833 14.6404 15.25C13.8738 16.0167 12.9738 16.625 11.9404 17.075C10.9071 17.525 9.79876 17.75 8.61543 17.75ZM11.6154 13.275L7.89043 9.55V4.25H9.39043V8.95L12.6654 12.225L11.6154 13.275Z" fill="#1C1B1F"/>
</svg>
