<svg width="20" height="15" viewBox="0 0 20 15" fill="none" xmlns="http://www.w3.org/2000/svg">
    <path
        d="M12.4265 0.143359C12.0328 0.143359 11.6461 0.164453 11.2382 0.269922C10.8234 0.37539 10.4156 0.551172 9.97965 0.839453C9.43824 0.523047 8.91793 0.255859 8.41871 0.199609C7.79297 0.122266 7.21641 0.157422 6.54844 0.171484C5.75391 0.185547 5.23359 0.593359 4.38984 0.916797C3.54609 1.24023 2.46328 1.54961 0.9375 1.54961H0.234375V8.3172L0.628125 8.51407L1.92187 9.14688L6.53437 14.2867L6.55547 14.3078C7.08281 14.8281 7.79297 14.9547 8.41871 14.923C9.04449 14.8808 9.63512 14.698 10.1062 14.4168C11.1398 13.7839 13.9734 11.8222 13.9734 11.8222L14.0367 11.773L14.0789 11.7238C14.4093 11.3863 14.5781 10.9785 14.6941 10.5566L17.3941 9.19254L19.4156 8.51051L19.8937 8.35582V1.52148H19.1906C17.6648 1.52148 16.575 1.19102 15.7382 0.860547C14.8945 0.530078 14.3812 0.129297 13.5796 0.108203C13.1507 0.0941408 12.757 0.0800781 12.3703 0.0800781L12.4265 0.143359ZM12.4476 1.54961C12.757 1.54258 13.1226 1.55664 13.5867 1.5707C13.657 1.5707 14.332 1.85898 15.2742 2.22461C16.0687 2.53398 17.1726 2.8082 18.5262 2.89961V7.38204L16.8949 7.93048H16.8457L16.7965 7.95157L14.659 9.02735C14.5395 8.70392 14.3777 8.4086 14.1316 8.14845L14.0824 8.07814L11.0941 4.40781L10.6512 3.85234L10.0957 4.28828L8.2043 5.8211C7.56445 6.25704 7.05117 6.13048 6.53086 5.88438C6.37617 5.80704 6.3832 5.78595 6.26719 5.7086L9.4734 3.04375L9.51559 2.99453C10.4648 2.04531 11.0484 1.72187 11.5546 1.58828C11.8007 1.51797 12.0679 1.49687 12.3843 1.50039L12.4476 1.54961ZM7.54687 1.5707C7.81406 1.56367 8.03906 1.56367 8.24996 1.5918C8.43277 1.61289 8.63668 1.76758 8.81949 1.83086C8.74215 1.89414 8.69293 1.9293 8.61559 2.00664C8.59449 2.0207 8.58746 2.02773 8.56637 2.04883L4.72031 5.23395L4.12266 5.71207L4.65 6.26051C4.65 6.26051 5.15625 6.80895 5.94375 7.1816C6.73125 7.55426 7.94766 7.7652 9.03746 7.00582L9.07965 6.9566L10.4367 5.8316L13.0242 9.01676L13.0453 9.05895L13.0664 9.08004C13.5304 9.53707 13.5164 10.2543 13.0664 10.7254C13.0593 10.7254 13.0664 10.7394 13.0664 10.7464C13.0593 10.7464 12.9609 10.8027 12.9539 10.8097L12.0257 9.55113L10.8832 10.3808L11.7832 11.5832C11.4176 11.8293 11.2488 11.9558 10.8551 12.216L9.90587 10.9363L8.75977 11.766L9.65977 12.9683C9.5754 13.0175 9.41368 13.123 9.3504 13.1652C9.1254 13.2988 8.69649 13.4464 8.31681 13.4675C7.95117 13.4816 7.67695 13.4043 7.54336 13.2918L7.51523 13.2636L2.81133 8.05348L2.71992 7.94098L1.57383 7.36442V2.81523C2.9168 2.72383 4.02773 2.45664 4.82578 2.1543C5.76094 1.78867 6.42891 1.49336 6.51328 1.49336C6.87187 1.4793 7.18828 1.47227 7.45547 1.46523L7.54687 1.5707Z"
        fill="#161613" />
</svg>