<svg width="20" height="20" viewBox="0 0 20 20" fill="none" xmlns="http://www.w3.org/2000/svg">
    <path
        d="M0.90625 7.75078C0.90625 6.35078 1.19392 5.02978 1.76925 3.78778C2.34392 2.54645 3.14792 1.46745 4.18125 0.550781L5.25625 1.60078C4.35625 2.38411 3.65625 3.30478 3.15625 4.36278C2.65625 5.42145 2.40625 6.55078 2.40625 7.75078H0.90625ZM18.4062 7.75078C18.4062 6.55078 18.1562 5.42145 17.6562 4.36278C17.1562 3.30478 16.4562 2.38411 15.5562 1.60078L16.6313 0.550781C17.6646 1.46745 18.4689 2.54645 19.0443 3.78778C19.6189 5.02978 19.9062 6.35078 19.9062 7.75078H18.4062ZM2.65625 16.6258V15.1258H4.65625V7.87578C4.65625 6.50911 5.07725 5.30478 5.91925 4.26278C6.76058 3.22145 7.83958 2.55078 9.15625 2.25078V1.55078C9.15625 1.20078 9.27725 0.904781 9.51925 0.662781C9.76058 0.421448 10.0562 0.300781 10.4062 0.300781C10.7563 0.300781 11.0519 0.421448 11.2933 0.662781C11.5352 0.904781 11.6562 1.20078 11.6562 1.55078V2.25078C12.9729 2.55078 14.0523 3.22145 14.8943 4.26278C15.7356 5.30478 16.1562 6.50911 16.1562 7.87578V15.1258H18.1562V16.6258H2.65625ZM10.4062 19.5508C9.90625 19.5508 9.48125 19.3758 9.13125 19.0258C8.78125 18.6758 8.60625 18.2508 8.60625 17.7508H12.2063C12.2063 18.2508 12.0312 18.6758 11.6812 19.0258C11.3312 19.3758 10.9062 19.5508 10.4062 19.5508ZM6.15625 15.1258H14.6562V7.87578C14.6562 6.69245 14.2436 5.68812 13.4183 4.86278C12.5936 4.03811 11.5896 3.62578 10.4062 3.62578C9.22292 3.62578 8.21892 4.03811 7.39425 4.86278C6.56892 5.68812 6.15625 6.69245 6.15625 7.87578V15.1258Z"
        fill="#1C1B1F" />
</svg>