<svg width="20" height="20" viewBox="0 0 20 20" fill="none" xmlns="http://www.w3.org/2000/svg">
    <path
        d="M0.109375 5.275V0.75H4.63438V2.25H1.60938V5.275H0.109375ZM0.109375 19.75V15.225H1.60938V18.25H4.63438V19.75H0.109375ZM14.5844 19.75V18.25H17.6094V15.225H19.1094V19.75H14.5844ZM17.6094 5.275V2.25H14.5844V0.75H19.1094V5.275H17.6094ZM14.8344 15.475H16.1844V16.825H14.8344V15.475ZM14.8344 12.75H16.1844V14.125H14.8344V12.75ZM13.4844 14.125H14.8344V15.475H13.4844V14.125ZM12.1094 15.475H13.4844V16.825H12.1094V15.475ZM10.7594 14.125H12.1094V15.475H10.7594V14.125ZM13.4844 11.4H14.8344V12.75H13.4844V11.4ZM12.1094 12.75H13.4844V14.125H12.1094V12.75ZM10.7594 11.4H12.1094V12.75H10.7594V11.4ZM16.1844 3.675V9.1H10.7594V3.675H16.1844ZM8.45938 11.4V16.825H3.03438V11.4H8.45938ZM8.45938 3.675V9.1H3.03438V3.675H8.45938ZM7.25937 15.625V12.6H4.23438V15.625H7.25937ZM7.25937 7.9V4.875H4.23438V7.9H7.25937ZM14.9844 7.9V4.875H11.9594V7.9H14.9844Z"
        fill="#1C1B1F" />
</svg>